<?xml version="1.0" encoding="UTF-8"?>
<svg id="Layer_2" data-name="Layer 2" xmlns="http://www.w3.org/2000/svg" viewBox="0 0 77.65 77.66">
  <defs>
    <style>
      .cls-1 {
        fill: #fff;
      }

      .cls-1, .cls-2, .cls-3, .cls-4, .cls-5 {
        fill-rule: evenodd;
      }

      .cls-2 {
        fill: #939598;
      }

      .cls-3 {
        fill: #010403;
      }

      .cls-4 {
        fill: #ed2224;
      }

      .cls-5 {
        fill: #3dc7f4;
      }
    </style>
  </defs>
  <g id="Layer_1-2" data-name="Layer 1">
    <g>
      <path class="cls-5" d="M37.4.05c-5.56.32-10.67,1.38-15.57,3.86-3.62,1.83-5.84,3.34-8.72,5.82-.92.79-1.67,1.65-2.47,2.4-.44.4-.74.83-1.14,1.26-.4.43-.72.85-1.09,1.31C2.69,21.92-.28,30.65.02,40.32c.15,4.89,1.6,11.18,3.87,15.51,2.65,5.05,4.24,7.21,8.22,11.19,1.44,1.44,3.63,3.11,5.4,4.28,6.66,4.4,14.24,6.54,22.8,6.34,5.78-.13,11.18-1.81,15.51-3.9,3.14-1.51,6.26-3.64,8.71-5.84l3.63-3.64c2.81-3.39,4.72-6.16,6.52-10.49,2.04-4.93,3.15-10.32,2.95-16.36-.28-8.63-3.43-16.52-8.57-22.94-3.93-4.9-9.45-9.13-15.27-11.48C49,1.08,43.25-.29,37.4.05M34.09,7.67l-.25.36c-.25-.03-.53-.16-.72-.27,0-.56-.06-.84.39-1.24.48-.42.11-.38.52-.69.09.12.12.33.16.5.13.68.2.51,1.1.42.1-.56-.45-1.16-.14-1.55.11-.13.22-.25.36-.32.07.12.2.55.21.68.04.87.24,2,.22,2.45-1.13.13-1.48.33-1.73-.16l-.12-.18ZM45.81,5.46l.23.43-.38.27-.27-.42.43-.27ZM40.17,7.54c-.39-.19-1.25-.02-.56-1.08.26-.4.75-1.01,1.3-.88.13.38.1.35.06.78-.32.02-.25-.2-.66,0-.19.1-.3.22-.31.42.36.1.76-.02.98.27.2.38-.24.94-.42,1.1-.87.75-2.09.55-2.23-.25-.06-.37,0-1.19.31-1.36l.07.32c0,.31-.1.55.33.77.32.17.91.13,1.12-.09ZM28.43,7.6c.08-.27.04-.27.23-.45.16.17.28.61.42.88.29,0,.6-.11.87-.19-.08-.39-.13-.69.14-.9-.19.04-.17.01-.24-.02.01-.81.35-.71.86-.39.3.19.76.45.9.7.11.2.35,1.13.29,1.33-.14.43-.97.29-1.27.21-.35.33-.24.31-.82.48-.35.1-.43.12-.64-.13l-.16-.18-.16.42-.76-.15c-.14-.39-.22-.78.04-1.14.23-.32.2-.15.29-.46ZM42.86,7.6c.03-.95.82-1.04.98-1.21.09-.1-.01-.06.17-.2.1-.08.14-.09.28-.14,0,.35-.09.7,0,1.04.2.1.87.23,1.19.26l-.15-.49c.15-.15.38-.31.6-.31.09,1.37-.13,1.1-.27,2.2-.39-.02-.8-.15-1.19-.24-.85-.19-.46-.38-.7-.67-.26.32-.32.34-.89-.24ZM48.26,7.11c-.14-.21-.1-.16-.08-.45.22.11.12.02.33.42l.48-.2c-.03.36-.3.37-.55.53l-.18-.3ZM42.22,6.36c.43.49.41,1.58.07,2.11-.65,1.02-1.44.09-1.52-.16.69.04,1.09-.25,1.38-.58-.06-.43-.29-.51-.41-.81l.47-.56ZM51.59,8.23l-.36.15-.14-.29c-.21.02-.14.04-.37.08l-.12-.39.37-.12.19.27.31-.09c.09.21.11.13.12.37ZM48.02,9.51c-.3-.09-.57-.22-.86-.29-.23.22-.47.67-.92.63-.27-.02-.71-.49-.78-.8.94.14.83-.01,1.47-.32-.02-.49-.16-.48-.3-.87.17-.15.36-.38.6-.44.12.19.12.24.13.49.43.08.74.28,1.08.35.54.1.28-.32.89-.38-.07.33-.17.22-.07.62.22.14.96.45,1.24.43.36-.22.06-.33.59-.31-.04.29-.15.14-.1.61.09.06.73.4.89.46.57.23.33-.27.96-.25-.1.26-.18.28-.12.65.19.11.51.25.72.42l.13-.33c.07-.15.39-.3.53-.33,1.12-.26-.24,2.09-.34,2.26-.18-.03-1.48-.71-1.75-.96-.32-.29-.21-.03-.66-.27-.27-.14-.53-.23-.8-.38-.21-.11-.22-.2-.38-.25-.48-.16-.45-.07-1.31-.46-.19-.09-.08-.03-.19-.12-.32-.25-.18,0-.65-.15ZM51.93,8.09l.22.47.49-.15c-.11.39-.25.28-.61.46-.16-.24-.3-.54-.1-.78ZM24.73,8.67c.03-.26.03-.31.18-.47.27.31.03.25-.04.78-.42-.1-.54-.03-.67-.44l.53.13ZM54.85,8.53l.12.44-.45.14-.1-.48.43-.1ZM23.49,9.64c.36-.19.66.27.92.42.14-.04,1.14-.52,1.25-.61-.12-.22.02-.05-.19-.2-.06-.04-.12-.07-.2-.12l.25-.62c.38.18.96,1.37,1.06,1.92-.15.13-.87.46-1.1.57-1.05.51-.6.28-.91.76-.25.03-.45-.06-.62,0l-.82.55c-.31.14-.26.01-.56-.01.43.34.32.62.06,1.11-.91,1.72-2.66.5-2.18-.94.19.09.13.05.2.3.42,1.44,1.33.17,1.56-.02-.3-.02-.39.12-.76.09-.17-.28-.18-.42-.16-.85.31-.32,1.63-1.01,1.78-1.21.22-.31.05-.92.42-1.12ZM54.92,9.56l-.3.08c-.16-.14-.09-.09-.17-.3l-.35.03-.09-.35.39-.13.13.3.34-.02.07.39ZM26.99,8.42c1.21.47,1.61,3.36-.41,2.5.09-.21.4-.24.6-.54.67-1,.13-.88-.36-1.23l.17-.72ZM48.57,10.01c.13.17.14.13.19.37l-.32.18c-.15-.1-.12-.1-.18-.29l-.38.1-.15-.32.36-.22.17.31.3-.13ZM26.32,10.95l.33.11-.09.43-.36-.08-.13.31-.37-.12.13-.43.35.09.14-.31ZM51.42,11.25l.13.28.35-.05.09.4-.36.11-.17-.3-.3.09-.13-.41.37-.12ZM56.96,13.97c-.09.19-.02.72-1.06.49-1.9-.42-1.12-2.45.14-2.44-.05.24,0,.12-.18.27-1.2,1.01.47,1.5.59,1.52-.14-.3-.35-.34-.36-.73.11-.14.44-.46.72-.39.25.06,1.66,1.34,1.95,1.46l.09-.53.64-.05c-.11.7-.85,1.41-1.17,1.91-.22-.1-.65-.47-.84-.64-.76-.67-.31-.37-.52-.87ZM16.67,13.81c.13-.5.65-1.27.96-1.51.11.15.13.39.14.62-.24.16-.5.47-.62.77.41-.07.3-.12.85-.12.83,0,1.51.81,1.63,1.18-.25.44-1.11.91-1.43,1.36.11.38.32.78,0,1.17-.22.26-.67.34-1.11.36.1.65.13,1.19-1.07,1.21.1-.28.24-.26.35-.67.08-.31.07-.59.03-.9-.35-.13-.46-.07-.85-.12l-.1-.72c.68-.08,1.42.62,1.58,1.11.39-.23.77-.53.72-1.18-.13.29-.2.45-.65.42-.7-.05-1.15-1.62-.87-2.08.5-.08.8.18,1.11.38.29-.17,1-.79,1.14-1.03-.91-.08-.67.13-1.02.21-.4.09-.45-.09-.77-.45ZM59.84,12.63l.02.51h-.45s-.05-.45-.05-.45l.47-.06ZM61.93,19.27c-.07-.09-.13-.15-.18-.25-.34-.62-.32-.16-.55-.61-.25-.49-.1-.04-.77-.83l-1.22-1.18c-.25-.25-.7-.51-.34-1.01.44-.61,1.03-1.2,1.4-1.8h.57c-.07.36-.85,1.07-1.06,1.49.09.22.89.97,1.03,1.04.05-1.23-.86-1.06.02-1.9.5.03,1.3.52,1.53.8-.56.52-.85-.21-1.37-.33.17.61.32.73.18,1.54-.06.35.33.87.93.84-.05.51-.11.67.54.58-.05.29-.07.4.02.64l.26-.39.53.03c-.03.3-.24.49-.37.72.14.23.43.69.66.82l.17-.48.62.05c-.05.35-.47.75-.67.92-.26.21-.6.61-.89.72l-1.05-1.4ZM63.33,16.55h.41s0,.43,0,.43l-.45-.03.04-.4ZM63.61,17.47l-.44-.02-.04-.35c-.22,0-.15.04-.3-.07l.02-.35h.41s0,.35,0,.35c.4.01.34-.03.36.45ZM13.9,18.78c.31-.15.54-.38.69-.75-.6-.34-.57-.03-.71.03-.12-.2-.27-.42-.22-.74.69-.27,1.53.54,1.78.79.29.28.39.41.06.8-.16.19-.4.55-.65.66-.25.03-.85-.55-.95-.79ZM12.8,20.34c.06-.32.02-.28-.06-.56.33.02.4.01.58-.16-.16-.12-.19-.07-.4-.15l-.04-.61c.73.15,1.15.75,1.69,1.04-.11.52-.49.6-.58.75-.08.13-.03.25-.19.43-.2.24-.16.01-.3.32-.17.37-.26.47-.46.77-.23.35-.21.45-.58.65-.04.49-.28.75-.51,1.16-.29.51-.59.31-1.01.05-1.36-.85-1.79-.75-1.68-1.56.37.17,1.22.78,1.54.86.17-.14.38-.46.47-.72.19-.55-.22-.31-.16-.95.43.17.36.52.86-.19.29-.42.45-.38.33-1.03.3-.01.26.03.52-.1ZM65.28,19.72l.47.09c-.01.24,0,.26-.1.44l-.4-.02.03-.51ZM62.19,20.41l.3.07v.37s-.42,0-.42,0l-.02-.34-.33-.09.03-.36h.41s.03.35.03.35ZM64.04,21.34c.2-.33.12-.54.25-.81h.71c-.14.7-.28.28.11.91l.38.61c.1.14.05.08.17.16l.23-.45.59.15c-.14.41-1.25,1.23-1.67,1.45l-.88-1.42c-1.06.16-1.45.05-1.34-1.18.24.01.51.74,1.45.57ZM10.85,21.04l.1.42-.31.13v.35c-.42.07-.37.12-.45-.37l.3-.1-.02-.35.37-.07ZM63.52,23.39c-.13-.37.05-.31.16-.58l.07-.29c.44,0,.4,0,.37.41l.3.07-.03.41-.86-.02ZM67.56,26.6c-.99.51-1.84-.04-2.2-.85-.61-1.37,1.16-1.77,1.44-1.58-.15.35-.79.13-.71.97.04.44.42.79.64.97-.07-.54-.63-1.29.71-1.09,1.78.27,1.31,1.1.61,1.16-.14-.31-.11-.77-.78-.69.02.36.31.55.28,1.1ZM10.51,25.93c.25-.21.23-.71.14-1.06-.29-.05-.49.02-.73.03l-.16-.76c1.07.03,2.43.81,1.98,1.97-.35.9-1.2.86-1.89.23-.09-.08-.29-.29-.31-.41-.11-.53.51.39.98,0ZM9.46,24.6l.14.49-.41.13c-.12-.15-.16-.28-.19-.5l.46-.12ZM68.24,30.89c-.22-.55-.37-1.11-.58-1.7-.8-2.21-1.14-1.69.63-2.63.78-.42,1.05-.68,1.5-.23l-.8.44c-.26.12-.55.22-.74.42l.55,1.31c.08-.13.16-.34.19-.52.06-.46-.36-.88.62-1.14.28.22.95.93,1.04,1.41l-.55-.03c-.07-.13-.15-.3-.25-.47-.04-.07-.09-.16-.14-.23-.12-.15-.02-.06-.18-.16-.14.94-.1.97-.59,1.63l.34.98c.29-.14.17-.19.39-.37l.53.3c-.16.34-1.42.85-1.95.98ZM8.41,28.85c.08-.25.44-1.3.66-1.38.15.21-.42,1.38-.5,1.46l-.16-.07ZM67.26,29.87l.36.12-.07.4.26.13-.19.35-.34-.12.1-.37-.26-.17.13-.34ZM7.83,35.27c-.12-.27-.23-.44-.44-.63l-.73.36c-.14-.16-.38-.35-.43-.6.5-.25.4.05.53-.58.07-.36.2-.57.17-.96-.24-.37-.32-.08-.42-.65.38.12.72.31.88-.88l-.46-.04c-.33-.61-.44-1.41.59-1.2-.03.14,0,.04-.08.14-.05.07-.03,0-.1.14-.08.16-.07.19-.07.36.58-.16.3-.32.56-.7.24.04.85.54,1.06.72-.03.29-.41,1.48-.53,1.82-.08.25-.04.1-.11.21-.19.3-.02.23-.1.63-.07.34-.17.61-.2.98.27.22.66.46.63.92-.02.31-.45.8-.68.85-.03-.38.11-.47-.08-.9ZM69.19,34.5c-.13-.72-.32-1.54-.54-2.23-.26-.77-.56-1.17.9-1.44.03.38.07.79.3,1.03.57-.28.27-.35.37-.61.27,0,.49.06.67.14.02.43-.54.85-.87.96l.3,1.34c.32-.1.22-.12.41-.32.22.11.45.23.55.43-.52.33-1.3.57-2.07.7ZM5.81,33.05c-.1-.18-.16-.22-.2-.45.35.09.39.26.53.61-.43.14-.18.32-.7.27.05-.13.06-.13.18-.23l.19-.19ZM8.86,33.15c.06.25.1.17.12.37l-.29.16c-.15-.14-.14-.1-.2-.33l.23-.25-.13-.28.28-.2c.13.11.17.16.23.37l-.25.15ZM71.7,32.96l.43.22-.26.45-.41-.21.24-.46ZM69.92,39.24c-.04-.33.02-.82-.05-.99-.26-.6.06-.39-.13-.86-.11-.28-.13-.68-.18-.99-.08-.47.08-.51.42-.62-.13-.2-.19-.15-.37-.34l.22-.74c.6-.09.84-.04,1.15.29.51.54.35.11.77.59-.31.11-.75.17-.96.38.11.92-.01.9.46,1.28-.13.17-.26.23-.25.57l.36.23c-.16.2-.27.22-.3.55.23-.07.18-.09.37-.19.17.12.34.22.45.45-.47.17-1.36.42-1.97.38ZM4.87,36.19l-.31-.68c.64.06,1.25.18,1.86.25.66.08,1.15.2,1.29.76l-2.84-.32ZM4.32,37.79c.09-.1.12-.11.23-.25-.09-.18-.1-.09-.17-.3l.31-.21.2.26c-.05.2-.14.27-.14.27,0,0-.02.03-.03.04l.16.26-.33.23-.23-.31ZM7.26,37.97c-.19.86-1.19.3-1.63-.07-.94-.79.24-1.13,1.15-1.04,2.19.2,1.61,2.96-.3,2.29-.31-.11-.13.01-.22-.2.86-.14,1.43-.35,1.08-1.29l-.09.32ZM17.95,26.43c.13-.17.8-1.23.83-1.31.59-.77,1.1-1.48,1.69-2.17l1.88-1.94c1.37-1.22,2.74-2.28,4.42-3.23,7.62-4.29,16.48-4.32,24.15,0,1.52.85,3.34,2.16,4.41,3.23,1.07,1.07,2.8,2.8,3.55,4.13.21.23.69.97.8,1.26.75.84,2.09,4.3,2.46,5.55,4.55,15.34-6.73,31.06-23.24,31.2-6.84.06-12.73-2.75-17.12-7-1.17-1.13-2.64-2.88-3.58-4.49-.64-1.09-.85-1.43-1.4-2.6-2.47-5.19-2.86-11.42-1.29-16.96.63-2.21,1.46-3.88,2.45-5.66ZM5.97,45.91c.2-.34.1-.9.29-1.31.15-.31.63-.61,1.06-.31.55.39.7,1.75-.24,1.94l-.09-.55c.2-.15.31-.18.27-.53-.04-.32-.11-.4-.42-.41-.14.37-.11,1.05-.28,1.38-.17.33-.67.54-1.12.3-.64-.35-.84-1.9.28-2.12l.1.52c-.27.18-.42.26-.37.66.04.33.17.48.54.42ZM74.15,45.19c-.32.04-.57-.07-.87-.08.29.85-.28,1.41-1.21,1.18-.68-.17-1.1-1.06-.44-1.46l-.09-.11c-.05-.1-.03-.02-.04-.14,0-.08.03-.24.04-.33.29-.06,2.2.37,2.7.44l-.1.51ZM64.48,46.67c.16.13.2.21.25.43l-.37.19c-.16-.14-.16-.16-.25-.4l.38-.22ZM4.95,47.27c.47.91.95-.26,2.23-.84l.08.59c-.19.11-1,.59-1.09.73l1.34.11.13.54c-.66-.05-1.32-.14-1.98-.19-.66-.05-1.2-.2-1.1-.97l.3-.1.08.14ZM71.26,48.2c-.64-.23-.37-1.31-.03-1.56.3-.22,1.27.2,1.85.17-.01.55-.2.53-.27.6.21.55-.04,1.23-.67,1.09-.58-.13-.36-.8-.47-1.37-.33,0-.41.18-.32.49.07.24.14-.06.05.31-.03.1-.1.2-.16.28ZM65.87,47.41l-.47.11c-.16-.18-.23-.38-.29-.64.87.02,1.43.28,2.14.52-.07.42-1.01,3.01-1.18,3.14-.32.24-1.31-.26-1.63-.38-1.05-.4-1.05-.22-1.13-.98.49.11,1.28.63,1.72.61.11-.15.21-.41.24-.64-.31.1-.41.04-.57-.18-.79-1.07.82-.72.93-.72l.24-.85ZM11.82,48.87c-.26-.29-.38-.77.06-.98.27-.13,1.09-.07,1.39.01,1.13.31-.13,1.17-.61,1.37-2.25.97-2.97-2.08-.54-2.13-.11.27.07.03-.19.24-.17.14-.4.24-.54.57-.21.51.03.85.43.92ZM14,47.21l.38.12-.1.39.28.1-.12.39c-.21-.03-.22-.07-.41-.13l.11-.4c-.21-.08-.14-.01-.27-.16l.14-.31ZM64.12,47.85l.19.38-.3.18c.1.3.18.39-.28.43l-.13-.35.27-.14-.07-.38.33-.12ZM70.65,48.89c-.15-.31-.03-.48.09-.69.24.07.22.08.4.26-.13.66-.34.48,1.27,1l-.13.52c-.33-.01-1.45-.42-1.88-.55,0-.1.03-.27.06-.35.09-.19.12-.07.15-.17,0-.02.03-.02.04-.03ZM7.71,48.7c.17.3.19.37,0,.56.42.22.72.92.15,1.25-.17.1-1.23.44-1.47.48l-.14-.51c.45-.23.97-.24,1.41-.54.08-1.03-1.16-.2-1.66-.18l-.12-.52,1.85-.54ZM11.91,50.06c.19-.22,1.28-.66,1.63-.83.71-.34.94-.67,1.58-.09l-.39.23c-.94.43-2.15,1.22-2.81.69ZM69.53,49.63c.26,0,2.35.72,2.56.86l-.14.5c-.37-.05-2.33-.71-2.59-.88l.16-.48ZM64.53,50.91l-.54.05-.17-.64c.52.02,1.8.53,2.05.78-.12.33-.31.67-.45,1-.21.48-.26.68-.88.5.03.23.1.19.12.49l-.62.39c-.2-.07-.28-.17-.43-.29-.52-.42-.18-.68-.4-1.08-.13-.24-.14-.16-.16-.51.31.09.65.34.96.33.14-.17.43-.75.51-1.02ZM12.88,51.86c-1.47.11-1.27-.96-1.04-1.38.29.13.26.75,1.29.87.24-.24.26-.37.4-.75l.76.19c-.15.4-.41.19-.14.71.12.23.26.56.43.75v-.45c.2-.07.31-.18.51-.07.42.21.68.81.32,1.46l-.45-.11.58.91c.82-.38.75-1.15,1.71-.61-.08.15-.11.13-.26.28-.54.54-.23.1-.69.42-.35.25-1.28.95-1.63,1.01-.36-.57-1.01-1.46-.99-2.02-.5-.38-.51-.61-.8-1.21ZM69.19,52.73c-.02-.37.19-.16-.11-.37-.32-.22-.67-.36-.1-1.19l.31.17c-.07.32-.23.39.11.56.18-.1.02-.01.25-.33l.35.17-.1.35,1.39.62-.23.45-1.42-.47s-.06.05-.07.06c-.07.06,0,.03-.11.08l-.28-.1ZM62.58,51.34l.09.39-.27.13.04.34-.36.11-.13-.41.29-.13-.03-.34.36-.1ZM66.28,51.52l.14.48-.47.15-.16-.44.49-.18ZM7.23,53.24c-.25-.59-.07-.44-.08-.55,0-.09.08,0-.13-.15-.16-.12-.07.01-.18-.19-.66-1.22,2.11-2.25,1.91-.28.61-.19.31-.22.87-.26l.13.47-2.52.97ZM9.94,52.64l.22.43c-.13.13-.26.19-.5.19l-.13-.45.41-.17ZM9.31,52.95l.18.49-1.8.78-.22-.47,1.83-.8ZM61.19,53.26c.4.15,1.15.64,1.55.87.49.29,1.04.59,1.03,1.3l-2.56-1.43-.03-.75ZM14.81,55.7c.33-.33.97-.75,1.41-1.08.66-.5.94-.93,1.6-.44-.3.32-.94.72-1.34,1.01-.44.33-.89.78-1.67.51ZM69.23,53.18c1.27-.47,1.99,1.48.72,1.98-.58.23-1.17-.18-1.35-.6-.28-.67.19-1.21.63-1.38ZM9.31,56.05c-1.29.11-1.56-1.29-.57-1.82,1.09-.59,1.91.58,1.27,1.43-.23-.08-.25-.2-.38-.37.05-.14.2-.29.08-.51-.26-.5-1.27.12-1.05.56.44.45.55-.17.65.71ZM60.35,55.8c-.12-.1-.31-.31-.34-.48.32-.23.84-.15,1.13-.34-.17-.2-.22-.23-.48-.38l.03-.66c.21.05.54.24.62.38l.4.65c.77.03,1.53.67,1.56.8-.04.27-.64,1.08-.81,1.19-.35-.04-.74-.43-1.06-.56.04-.26.26-.6.06-.9-.22-.26-.55.19-.75.25-.14.05-.21.04-.35.04ZM9.97,56.36c.26.18.37.51.69.59.17-.27.1-.43-.16-.56-.02,0-.38,0-.31-.52.47-.05.63.13.82.38.62.79.04,1.11-.5,1.41-.39.21-.4.28-.7.52-.14-.13-.2-.23-.23-.41-.05-.31.15-.04-.2-.31-.78-.61-.11-1.57.59-1.09ZM17.67,57.56c-.26.04-.21-.03-.59-.55-.11-.16-.4-.46-.4-.63.23-.09.17-.02.34.2.2.26.65.74.65.97ZM67.12,57.02c-.06-.64.36-1.15.99-.86.24.11,1.02.57,1.18.74l-.25.42c-.41-.08-1.07-.79-1.42-.63-.74.49.79,1.02,1.04,1.31l-.3.42c-.19-.07-1.55-.93-1.65-1.04.04-.11.08-.25.21-.33l.2-.04ZM59.74,57.5c.15-.2.32-2.42,1.99-.44.14.17.39.39.27.63-.03.05-.41.5-.45.54-.33.38-.58.72-.9,1.07-.46.52-.42.35-.58.47-.08.06-.04,0-.11.14-.25.46-.89,1.35-1.48.89l-1.48-1.48c-.18-.19-.2-.4-.04-.69.44.23.88,1.03,1.36,1.2.13-.09.5-.43.57-.58.2-.44-.18-.26-.04-.84.26.05.08.24.52.27.28-.13.37-.25.38-.63l-1.17-.67.05-.62c.23.07.51.13.66.29l.47.45ZM12.14,58.3c-.14.06-.15.09-.31.16-.13-.12-.11-.15-.25-.25l-.85.59c.07.27.07.07.17.33l-.35.21c-.53-.45-.48-.78.03-1.11.98-.62.63-.5.69-.7.04-.11.07-.08.17-.21.45.03.02.1.32.09.03,0,.45-.29.79.18l-.54.34c.08.22.11.13.12.37ZM20.16,59.21c.19.38-1.13,2.15-2.29,1.4-1.27-.82.33-2.43.94-2.11-.08.35-.63.36-.47.89.09.3.55.51.95.46.16-.29.09-.41.19-.69l.68.05ZM19.45,58.29c.51-.04.55-.06.48.49h-.49s.02-.49.02-.49ZM20.81,62.03c-.43-.08-.66-.36-.93-.61-.92-.83.49-1.22,1.31-2.59l.61.06c-.13.39-1.05,1.06-1.15,1.45.81,1.01.87.36,1.42.44-.07.35-.53.43,0,.85.31.25.43.47.95.3,0,.64.08.64.64.46.01.35-.01.36.12.61l.13-.2s.02-.17.03-.21l.62-.06c-.09.53-.77,1.44-1.07,1.76-.4-.17-.44-.43-.65-.58-.12-.08-.26-.07-.41-.2-.23-.19-.06-.19-.3-.32-.19-.1-.22-.07-.41-.21-.39-.28-.87-.56-.9-.96ZM66.4,58.12c1.35-.46,1.9,1.6.69,2.01-1.31.44-2-1.55-.69-2.01ZM12.16,60.73c-1.4.11-1.5-1.43-.49-1.91,1.14-.53,1.99.98.78,1.72-.33-.2-.5-.87-.86-.99-.09.18-.12.35-.08.58.39.21.52-.06.65.6ZM64.23,59.61c.08-.15.19-.27.31-.37.14.07.24.17.38.25l-.32.42c-.19-.07-.28-.13-.37-.3ZM64.83,60.1c.08-.18.11-.22.26-.38.3.04,1.27.92,1.6,1.13l-.3.42c-.21-.05-1.37-.99-1.56-1.18ZM22.38,60.67c-.05-.07-.01.03-.07-.14-.01-.04-.02-.11-.02-.16-.36-.11-.37.04-.38-.44l.42-.05.05.33.33.03v.37s-.33.04-.33.04ZM57.37,61.52c-.3-.45-.2-1.08.07-1.48.25.06.28.1.38.3-.13.31-.26.12-.29.55.33-.03.26-.17.61-.16.29.21.44.5.16.88-.14.2-.35.6-.66.62l.36-.95c-.2.1-.35.21-.62.23ZM60.25,60.01h.46s-.02.5-.02.5l-.47.02.04-.52ZM64.54,60.47c.19.11,1.54,1.3,1.66,1.47.27.38.03.81-.21,1.08-.33.36-.54.53-1.08.27.11-.44.57-.41.74-.55.37-.3.08-.61-.19-.73-.02.92-.87,1.07-1.45.57-.63-.54-.65-1.26.21-1.6,0-.01,0-.05,0-.04,0,0-.03-.23.3-.47ZM54.67,60.55c.21.11.85.98,1.07,1.25.37.44.79.79.67,1.65-.11-.03-1.51-1.67-1.77-1.97-.22-.26-.15-.58.03-.93ZM54,61.17c.4.5.36.23.5.53.34.7,1.17,1.49,1.3,1.99-.24.1-.49.32-.74.49-.86.61-.75.26-1.02.59-.18.22-.63.5-.9.64-.26.13-.39.09-.53.15-.13.05-.19.19-.33.28-.51.34-2.71,1.35-3.1,1.41-.03.39-.11.88-.36,1.05-.28.2-.96.06-1.15-.13.13-.11.99-.43.97-1.23-.27-.24-.37-.25-.66-.44.06-.21.09-.54.22-.71.2.08.23.12.35.3,1.13-.19.6-.69.23-1.27-.25-.39-.23-.49.1-.85.06.05.03.02.1.1.58.62.19.26.43.74.08.17.1.14.15.34.24-.21.46-.67.79-.8.56-.22.74.31.99.53.23-.14.24-.08.43-.28.07-.44-.14-.5.19-.74.21.34.15.65.96.15.78-.49.05-.5.46-1.03.09.07.02-.01.12.13.06.08.04.1.1.15.27.29.68-.08,1.03-.4-.09-.24-.47-.57-.65-.79-.19-.22-.28-.23-.11-.69.06-.16.01-.12.13-.22ZM15.11,62.5c-.11.46-.66.95-1.29.81-.46-.11-.94-.68-.75-1.31.41-1.32,2.33-.77,2.04.5ZM15.32,62.72l.21-.22c.24.1.06.09.33.13.13-.18.34-.4.7-.23.15.07.41.37.46.55l-.25.16c-.29-.1-.15-.33-.55-.11.04.3.05.12.19.37l-.24.27c-.24-.13-.09-.11-.32-.21-.27.23-.85.88-1.11,1.01-.13-.09-.28-.19-.35-.39.23-.26.8-.82,1.03-.98-.04-.37-.08-.06-.1-.35ZM63.08,63.89c.3.14.58.09.62-.23.01-.08-.16-.34.41-.54.44.96-.84,2.02-1.76.82-.88-1.14,1.07-2.13,1.57-.99-.22.19-.81.67-.84.94ZM25.23,63.24c.15-.14.39-.37.69-.33.37.72-.42,1.88-.68,2.25-.44.04-1.07-.42-1.3-.63,0-.35.35-.93.54-1.12.24.14.47.54.92.49.11-.84-.02-.37-.17-.67ZM17.36,65.74c.41-.1,1.26-.85,1.75-1l.4.34c-.12.18-2.14,1.33-2.43,1.48-.17-.06-.34-.2-.48-.35.03-.27.9-2.56,1.04-2.71.17.09.33.21.44.43l-.71,1.82ZM28.32,64.14c.19.44.55.64.6,1.32.03.43-.21,1.14-.43,1.41-.36.02-1.57-.61-1.91-.78-.26.13-.55.52-1.03.41-.28-.06-.61-.56-.65-.94.77.22.77.34,1.55-.04.05-.45-.07-.5-.12-.87.21-.07.51-.3.71-.27l.03.51c.45.17.96.45,1.46.67,0-.48-.41-.72-.54-.83-.36-.29-.15-.59-.01-.99.34-.03,1.49-.02,1.73.31-.56.54-.57.17-1.38.1ZM61.66,64.65c.46.05,1,.11,1.38.32-.26.58-.68.39-.93.33-.62-.16-.7-.27-1.13.06.13.3.62.65.71.92l-.42.34-1.8-2.02c.1-.24,1.05-1.06,1.35-1.17.71-.26,1.24.52.83,1.22ZM54.67,65.52l-.46-.09.08-.52.44.11-.06.5ZM35.56,66.02l.25-.26.25.18c.26-.05.12-.08.38-.12.08.16.11.13.18.32l-.3.21c-.16-.11-.12-.11-.25-.2l-.31.15-.19-.28ZM53.25,66.32l-.36-.04-.12.29c-.2-.04-.24-.03-.38-.13l.07-.37.4.04.06-.28.38.07-.06.41ZM40.68,66.4c-.15-.09-.22-.13-.32-.32.09-.15.12-.22.32-.32l.32.3c-.1.18-.14.24-.32.34ZM46.56,66.26c.08-.18.21-.43.35-.55.33.31.73,1.5.79,2.07-.63.2-1.39.54-1.89.5-.57-.05.03.01-.69.19-.81.19-.18.53-.87.98-.67.43-1.47.17-1.66-.77-.06-.29-.14-1.03.26-1.06.11.35-.03.8.5.86.4.04.72-.31.82-.56-.08-.15-.12-.2-.22-.3l-.24-.25.42-.57c.19.13.22.21.31.46,1.2-.02.48-.57,1.06-.8.08.14.05.27.16.49.29.06,1.01-.13,1.24-.32-.11-.18-.19-.2-.33-.37ZM35.08,67.48l.55.08c-.33-.72.53-.96.56-.96.63.11.25,1.95.21,2.29-.12.06.05.03-.19.05l-2.51-.39c-.69-.12-.49-.15-.71-.31-.42.19-1.13-.13-1.42-.27-1.08.62-.35-.35-1.24-.37-.15.62-.08.95-.64,1.15-.02-.32.13-.96.19-1.3.22-1.26.2-1.26.99-1.18.21.02.27-.15.44-.28.42-.33.82-.13.81.45v.37c.24.15.62.22.93.17.32-.24.09-.4.6-.42-.07.27-.21.5.1.66.19.1.67.17.87.12l.05-1.37.63-.32c.03.72.07.54-.08.94-.07.2-.12.67-.14.89ZM21.22,67.19c.09.12.14.15.24.25l-.19.32c-.25-.05-.16-.07-.37-.13l-.54.85c.09.16.18.15.22.31l-.17.27c-.94-.16-.62-.81-.26-1.31.54-.76.17-.29.2-.67.03-.41.27-.15.45-.28.01,0,.13-.16.15-.17h.58s-.32.57-.32.57ZM58.93,68.43c-.11.08-.3.23-.43.29-.2-.18-1.08-1.39-1.14-1.68.43-.19.13-.25.55-.12.13-.56.75-.96,1.19-.46.18.2.78,1.01.83,1.22l-.42.31c-.3-.45-.8-1.41-1.2-1.12-.45.33.47,1.24.62,1.56ZM19.53,67.85c-1.06.53-2.02-.75-1.01-1.69.91-.84,2.2.49,1.2,1.45-.29-.14-.82-.73-1.08-.71-.27.79.36.43.64.65.12.09.18.16.23.3ZM43.33,67.21c-.17-.07-.27-.12-.38-.27l.24-.38.41.24c-.06.16-.08.24-.27.41ZM36.81,69.21l.05-2.97.61-.39c0,.67-.04,1.31-.05,1.94-.01.67-.09,1.12-.61,1.41ZM41.53,68.65l-.57.03c.07.13.53.48-.3,1.01-.34.22-.89.41-1.36.25-.99-.33-.73-2.04-.1-2.13-.02.41-.33.86.01,1.16.28.25.93.2,1.29,0-.27-.29-1.05,0-.56-.93.17-.33.26-.22.65-.27-.36-.39.21-1.27.62-.93.36.3.4,1.25.33,1.81ZM55.81,68.63c-.19-.7.78-1.27,1.23-1.04.21.1.41.52.53.71l.39.54c.13.17.05-.02.13.2-.37.13-.19.21-.6.13-.16.56-.95.89-1.24.33-.37-.7.55-.89.59-1.39-.64-.31-.3.53-.91.53-.01,0-.04,0-.05,0-.01,0-.03,0-.05,0ZM54.8,67.91c.13.14.21.33.28.53l.36-.12.16.29c-.1.28-.09.04-.21.31l.46.85c.29.02.1,0,.35-.1l.2.35c-.23.25-.39.38-.81.31-.25-.26-.51-.73-.69-1.16-.25.02-.23.14-.36-.07-.24-.37.02-.18.03-.43,0-.05-.23-.35.22-.75ZM47.51,68.73l-.38-.08-.15.25-.34-.16.18-.37.32.11.17-.28.35.14-.15.39ZM22.09,69.33c.11.15.22.21.28.38-.89.65-2.12-.54-1.11-1.61.88-.94,2.21.41,1.3,1.34-.35-.14-.75-.52-1.11-.61-.16.63.14.62.64.5ZM24.54,69.22c-.05.26-.1.19-.24.39-.24-.08-.55-.76-1.26,1.02l-.48-.22.9-1.77c.66.21.27.28.47.35.24.08.27-.14.61.23ZM32.23,68.86l.37-.27.18.28.32-.16c.07.13.13.2.19.32l-.31.24-.24-.25-.31.14-.2-.3ZM25.33,69.29l-.43-.18c0-.24.06-.28.18-.45l.48.18c-.04.21-.1.31-.23.45ZM45.88,69.45l-.32-.16-.17.24-.34-.17.15-.37.35.12.19-.23.32.16-.17.42ZM53.38,69.97c.38.12.65-.16,1.11-.09.37.05.55.39.43.77-.18.55-1.11.96-1.64.42.19-.25.3-.31.58-.24.32.08.58-.02.55-.37-.27-.12-.65.12-.97.1-.32-.01-.6-.28-.54-.64.08-.54,1.15-1.05,1.54-.51-.06.08-.1.15-.23.22-.34.2-.66-.23-.83.35ZM51.57,69.4l.5-.21.18.46-.47.22-.22-.46ZM24.35,71.31l-.43-.19c.04-.25.7-1.59.86-1.78l.44.19c-.03.22-.73,1.65-.88,1.79ZM50.72,69.78l.52-.21.93,2.54c-.2.12-.27.19-.47.15l-.1-.03s-.02-.01-.03-.01c-1.26,1.66-2.69-1.96-.56-1.6l-.28-.83ZM51.91,70.09l.48-.22.78,1.81-.53.14-.74-1.72ZM25.38,71.78l-.48-.19.73-1.81c.21.03.33.05.43.2.13.18-.02-.04.04.08l.03.09c.55-.15,1.13.18,1,.76-.06.25-.46,1.15-.59,1.38-.19-.05-.35-.11-.49-.22.1-.37.81-1.42.29-1.59-.57-.18-.78.94-.98,1.31ZM39.5,70.47l.25-.27.31.18.25-.25.3.23-.21.34c-.21-.08-.16-.09-.33-.2l-.29.25-.28-.29ZM27.5,71.07c.55-.68,1.45-.03,1.54.12.18.3-.02.66-.12.94-.19.53-.14.55-.24.87,0,.01,0,.03-.02.05-.09-.02-.21-.04-.3-.08l-.26-.21c-.58.08-1.14-.19-.98-.81.16-.6.88-.3,1.4-.34.12-.75-.6-.03-1.02-.54ZM31.66,71.54l-.5-.07.07-.49.51.1-.09.46ZM45.08,72.48c.22.42,1.16,1.11,1.27,1.48l-.67.12c-.27-.3-.68-.9-.93-1.08-.48.45-.27.62-.23,1.29l-.56.1-.47-2.71c.79-.16.52-.16.71.72l.12.28c.13-.29.38-.62.56-.92.27-.44.33-.44.96-.51l-.78,1.22ZM49.5,73.11l-.49.15-.62-1.9c.65-.18.42-.11.59,0,.12-.31.28-.37.65-.36v.49c-.41.15-.59.03-.4.68.09.3.22.6.27.93ZM47.46,71.62l.54-.14.46,1.96c-.08.02-.29.08-.33.08-.16,0-.23-.1-.28-.11-.19.41-.95.59-1.22.04-.08-.17-.37-1.3-.38-1.5l.52-.14c.14.52.21,1.13.45,1.47.92.12.34-1.11.26-1.66ZM30.61,72.09c-.15-.06-.45-.4-.67.25-.12.36-.18.67-.29,1l-.52-.11.51-1.91c.39,0,.39.08.56.24.28-.17.42-.04.63.05-.02.28-.09.28-.22.48ZM31.12,73.71l-.5-.09.42-1.9.52.06c0,.46-.35,1.44-.45,1.93ZM31.88,72.42c.15-.57,1.13-.51,1.5-.16.33.32-.1,1.32-.05,1.93-.19,0-.29-.02-.43-.1-.29-.16.1-.14-.36-.09-.38.05-.74-.02-.86-.29-.16-.33-.02-.7.24-.82.3-.14.74-.02,1.05-.12,0-.64-.5-.19-.76-.22-.09-.01-.26-.1-.32-.14ZM39.35,71.96l.52-.02v.52s-.51,0-.51,0v-.49ZM34.27,74.35l-.48-.04.21-1.82c.06-.25.15-.16.46-.13.11.14.05.09.12.21.37-.27,1.06-.21,1.16.29.07.36-.12,1.26-.17,1.66l-.54-.08c.02-.52.24-1.07.12-1.55-.89-.35-.6.92-.88,1.46ZM36.66,73.1c.14.3.41.2.88.43.35.17.47.54.16.9-.42.5-1.67.26-1.67-.44l.53.03s.09.1.09.1c.2.21.45.21.65.02-.08-.36-.27-.15-.8-.43-.29-.15-.49-.44-.3-.8.27-.52,1.55-.51,1.61.24-.33.13-.36.09-.57-.06-.13-.09-.5-.21-.57,0ZM40.98,73.47c0,.38.09.91.02,1.18l-.48.03-.14-1.95c.12-.04.2-.08.35-.05.34.07-.08.03.25.16.26-.33.98-.43,1.18.08.07.19.15,1.42.12,1.64l-.52.02c-.04-.47-.02-1.12-.15-1.49-.36-.14-.63-.06-.63.37ZM39.35,72.69h.54s.03,2.01.03,2.01h-.54s-.03-2.01-.03-2.01Z"/>
      <path class="cls-1" d="M17.95,26.43c-.99,1.78-1.82,3.45-2.45,5.66-1.57,5.54-1.18,11.77,1.29,16.96.56,1.17.77,1.51,1.4,2.6.94,1.61,2.42,3.36,3.58,4.49,4.39,4.25,10.28,7.05,17.12,7,16.51-.13,27.8-15.86,23.24-31.2-.37-1.25-1.71-4.7-2.46-5.55-1.58.22-3.04,1.72-3.71,2.59-1.04,1.35-5.88,9.89-6.94,11.73-1.53,2.65-3.04,5.21-4.57,7.87-.4.69-4.36,7.41-4.56,7.9h-1.25s-14.52-23.64-14.52-23.64c-.8-1.31-1.6-2.64-2.44-3.91-.49-.74-.82-1.22-1.52-1.69-.26-.18-1.84-1.07-2.22-.82M41.69,59.03c-.06-1.21,2-1.3,2.17-.2.15,1.02-1.47,1.64-1.66,2.17l1.67.02v.39s-2.29,0-2.29,0c.05-.56.39-.85.69-1.08.33-.26.67-.52.92-.81.36-.41.37-.97-.21-1.1-.71-.16-.73.3-.94.64l-.35-.04ZM33.97,59.25c0-.56.19-.37.55-.69.47-.42.3-.51.71-.48v3.3s-.42.04-.42.04v-2.58c-.25.13-.5.36-.84.41ZM38.12,59.94c-.38.18-.67.53-1.27.23-.34-.17-.59-.51-.56-1.06.05-1.03,1.22-1.37,1.87-.74.5.48.53,1.94.11,2.58-.48.73-1.74.76-1.93-.32.68-.03.25-.01.56.34.18.2,1.15.46,1.21-1.04ZM40.81,59.92c-.3.2-.62.53-1.21.27-.35-.16-.61-.49-.61-1.02.01-1.04,1.13-1.45,1.84-.83.52.45.58,1.93.14,2.6-.48.73-1.74.77-1.93-.31.69-.03.24,0,.56.35.3.33,1.28.19,1.2-1.07Z"/>
      <path class="cls-2" d="M17.95,26.43c.38-.25,1.96.64,2.22.82.7.47,1.03.95,1.52,1.69.84,1.27,1.64,2.6,2.44,3.91l14.52,23.63h1.25c.2-.48,4.16-7.2,4.56-7.89,1.53-2.67,3.05-5.23,4.57-7.87,1.06-1.84,5.9-10.38,6.94-11.73.67-.87,2.13-2.37,3.71-2.59-.11-.29-.59-1.02-.8-1.26l-.63.06c-2.72-.02-6.22-.06-8.88,0-.64.01-.5,0-.55-.13l-.7.15c-.04.27,0,.33-.11.53l.15.31c1.37.12,3.42.39,4.27,1.48.77.99-.61,3.13-1.08,3.99-1.87,3.42-4.2,7.27-6.2,10.74-.21.37-.49.8-.67,1.19h-.29c.46.28.11.22-.31.21-2.13-.02-4.5.05-6.55,0v-.2c-.23-.15-2.69-4.23-3.03-4.79l-4.41-7.18c-.45-.73-.98-1.66-1.26-2.57-.84-2.72,2.53-2.65,4.58-2.9,0-.01.02-.04.02-.05l.08-.18s0-.02.01-.03l-.08-.58c-.29-.01-.54,0-.72-.11-.1.14.02.05-.18.1h-13.43c-.12-.04-.08-.03-.15-.07-.03.08-.7,1.14-.83,1.31M40.99,49.44c-.21-.14-2.49-3.97-2.71-4.32-.28-.45-.56-.95-.85-1.38h6.87s-3.31,5.69-3.31,5.69Z"/>
      <path class="cls-1" d="M18.78,25.11c.07.04.03.03.15.06h13.43c.19-.04.08.06.18-.09-.26-.25-.69-.83-.75-1.37.67.11,1.41.34,2.1.48,5.61,1.15,10.21.84,15.71-.48.06.46-.54,1.19-.77,1.35.06.14-.08.15.55.13,2.65-.06,6.16-.02,8.88,0l.63-.06c-.75-1.33-2.48-3.07-3.55-4.13-1.07-1.06-2.9-2.38-4.41-3.23-7.66-4.31-16.53-4.28-24.15,0-1.68.94-3.05,2.01-4.42,3.23l-1.88,1.94c-.59.68-1.1,1.39-1.69,2.17M38.53,22.04c-.15-.52.03-.61.19-1.06.29-.79.39-1.27.85-1.74,1.28-1.28,2.47-2.18,4.59-1.75,3.12.63,4.25,3.57,4.04,6.46l-1.68.31c.16-2.84-1.09-4.57-3.54-5.05-.38-.07-.68.17-.99.36-.28.17-.18.12-.29.45-.4,1.19-1.11,1.21-1.9,1.67-.15.09-.3.18-.49.26-.17.07-.39.08-.52.14-.28.12-1.47,1.65-3.02.7-.83-.51-.07-.6-1.68-1.16.27-.06,1.01.19,1.13.25.26.14.49.47.95.64,1.4.52,1.73-.07,2.37-.49Z"/>
      <path class="cls-1" d="M37.33,43.46c.59.05,2.51-.52,2.9-.81.02-1.1-.08-.9.45-1.11.21-.08.31-.15.57-.2v1.32c.38.28,2.4.83,2.95.79h.29c.18-.4.46-.83.67-1.19,2-3.47,4.33-7.33,6.2-10.74.47-.86,1.85-2.99,1.08-3.99-.85-1.09-2.89-1.36-4.27-1.48l-.15-.31c-.27.13-.51.32-.87.47-1.29.53-1.68.6-3,.99-.68.2-1.35.42-1.97.69-.76.34-.88.72-.91,1.76l-1.12.31c-.15-2.31-1-2.08-2.93-2.62-.6-.17-2.43-.83-3.02-1.12-.2-.1-.74-.42-.86-.44,0,0-.01.01-.01.03l-.08.18s-.01.03-.02.05c-2.05.24-5.42.18-4.58,2.9.28.9.82,1.83,1.26,2.57l4.41,7.18c.34.56,2.79,4.64,3.01,4.79M37.74,32.8c.26.58,1.9.23,2.39.49.09.09.05.73.04.89-1.08.1-4.69.16-4.04-1.76.56-1.65,5.71-2.35,7.99-3.96l1.15-1.07c.74-.91.11-.33,1.36-.86.27-.12.82-.4,1.08-.46-.7,2.16-2.22,3.26-4.04,4.28-.88.49-1.88.9-2.96,1.23-.8.24-2.67.69-2.97,1.21ZM41.23,35.08c.26,0,.89-.14,1.02-.43-.09-.08-.01-.04-.16-.12l-.74-.19v-.95c.59.03,1.97.31,2.31.61.41.36.57,1.21-.48,1.73-1.38.69-4.17.46-4.61,1.25.17.49,1.05.46,1.6.64v.75c-1.75.02-5.24-2.06-1.21-2.93.59-.13,2.07-.22,2.27-.38ZM41.23,35.08c-.43-.02-.5.16-.96.12l-.04-3.29,1.03-.24-.03,3.41ZM41.35,37.9c1.62.1,3.6,1.19.96,2.76-1.37.82-2.74,1.29-4.44,1.73.06-.07,1.49-.65,1.72-.76.9-.41,2.55-1.19,3.08-1.97.61-.89-.7-.99-1.32-1.06v-.7ZM40.26,41.2v-4.75s.99-.17.99-.17v4.42s-.99.5-.99.5Z"/>
      <path class="cls-3" d="M32.53,25.09c.19.11.43.1.72.11l.08.58c.12.02.66.34.86.44.58.28,2.42.95,3.02,1.12,1.93.54,2.78.31,2.93,2.62l1.12-.31c.02-1.03.14-1.42.91-1.76.62-.27,1.29-.49,1.97-.69,1.33-.39,1.72-.46,3-.99.36-.15.6-.34.87-.47.1-.2.07-.26.11-.53l.7-.15c.23-.16.83-.89.77-1.35-5.49,1.32-10.1,1.64-15.71.48-.68-.14-1.43-.37-2.1-.48.06.54.49,1.12.75,1.37"/>
      <path class="cls-4" d="M38.53,22.04c-.63.41-.96,1-2.37.49-.46-.17-.69-.5-.95-.64-.11-.06-.85-.31-1.13-.25,1.62.56.85.65,1.68,1.16,1.55.95,2.74-.58,3.02-.7.14-.06.36-.07.52-.14.18-.08.34-.17.49-.26.79-.47,1.5-.48,1.9-1.67.11-.33,0-.28.29-.45.32-.19.62-.44.99-.36,2.45.48,3.7,2.21,3.54,5.05l1.68-.31c.2-2.89-.92-5.83-4.04-6.46-2.12-.43-3.31.47-4.59,1.75-.47.46-.57.95-.85,1.74-.16.45-.34.54-.19,1.06M39.75,20.17c.18-.18.41.08.24.24-.14.13-.43-.05-.24-.24Z"/>
      <path class="cls-4" d="M37.74,32.8c.29-.53,2.17-.97,2.97-1.21,1.08-.33,2.08-.73,2.96-1.23,1.82-1.02,3.34-2.12,4.04-4.28-.26.05-.81.34-1.08.46-1.24.53-.62-.04-1.36.86l-1.15,1.07c-2.27,1.61-7.43,2.31-7.99,3.96-.65,1.92,2.96,1.86,4.04,1.76.02-.16.06-.8-.04-.89-.5-.26-2.13.09-2.39-.49"/>
      <path class="cls-1" d="M40.99,49.44l3.31-5.69h-6.87c.29.42.57.92.85,1.37.22.35,2.5,4.18,2.71,4.32"/>
      <path class="cls-3" d="M53.15,65.41c.26-.14.71-.42.9-.64.27-.32.16.02,1.02-.59.24-.17.49-.38.74-.49-.12-.5-.96-1.29-1.3-1.99-.14-.3-.1-.03-.5-.53-.11.11-.07.06-.13.22-.17.47-.08.48.11.69.19.21.56.54.65.79-.35.32-.76.69-1.03.4-.05-.06-.04-.07-.1-.15-.1-.14-.03-.06-.12-.13-.4.53.33.54-.46,1.03-.81.5-.75.19-.96-.15-.33.24-.12.29-.19.74-.19.2-.2.14-.43.28-.25-.22-.43-.75-.99-.53-.33.13-.55.58-.79.8-.05-.2-.07-.18-.15-.34-.24-.48.14-.13-.43-.74-.07-.07-.04-.05-.1-.1-.33.36-.34.46-.1.85.37.58.9,1.08-.23,1.27-.13-.18-.15-.22-.35-.3-.13.17-.16.5-.22.71.29.19.39.2.66.44.02.8-.84,1.12-.97,1.23.19.19.87.33,1.15.13.24-.17.32-.66.36-1.05.4-.06,2.59-1.07,3.1-1.41.14-.09.21-.23.33-.28.15-.06.28-.02.53-.15M49.81,65.59c.1-.33.29-.6.67-.61.16.12.13.04.19.23l-.86.38Z"/>
      <path class="cls-3" d="M46.62,7.86c.14.4.28.38.3.87-.63.31-.53.46-1.47.32.07.3.51.77.78.8.45.04.69-.41.92-.63.3.07.57.2.86.29.47.15.33-.1.65.15.12.09,0,.03.19.12.85.39.82.3,1.31.46.16.06.17.14.38.25.26.14.53.24.8.38.45.23.35-.02.66.27.28.25,1.57.93,1.75.96.1-.17,1.46-2.52.34-2.26-.14.03-.46.18-.53.33l-.13.33c-.21-.18-.53-.31-.72-.42-.06-.37.02-.39.12-.65-.63-.02-.39.47-.96.25-.16-.07-.8-.4-.89-.46-.05-.47.06-.32.1-.61-.53-.03-.23.08-.59.31-.29.02-1.02-.29-1.24-.43-.1-.4,0-.29.07-.62-.6.06-.35.49-.89.38-.34-.06-.65-.26-1.08-.35-.01-.25,0-.29-.13-.49-.24.07-.43.29-.6.44"/>
      <path class="cls-4" d="M41.23,35.08c-.2.16-1.68.25-2.27.38-4.03.86-.54,2.95,1.22,2.93v-.75c-.55-.19-1.43-.16-1.6-.64.44-.8,3.23-.56,4.61-1.25,1.06-.53.9-1.37.48-1.73-.34-.3-1.72-.57-2.32-.61v.95s.74.19.74.19c.15.08.07.03.16.12-.13.29-.77.43-1.02.43"/>
      <path class="cls-3" d="M62.98,20.66c.29-.12.63-.51.89-.72.2-.16.62-.57.67-.92l-.62-.05-.17.48c-.23-.12-.52-.59-.66-.82.13-.23.33-.41.37-.72l-.53-.03-.26.39c-.09-.23-.07-.35-.02-.64-.65.09-.59-.07-.54-.58-.6.04-.99-.49-.93-.84.13-.81-.02-.93-.18-1.54.52.13.81.85,1.37.33-.23-.28-1.03-.77-1.53-.8-.88.84.03.67-.02,1.9-.14-.06-.94-.81-1.03-1.04.21-.42.98-1.13,1.06-1.47h-.57c-.37.59-.96,1.17-1.4,1.79-.37.51.08.76.34,1.01l1.22,1.18c.67.8.52.35.77.83.23.45.21,0,.55.61.06.11.12.17.18.25l1.05,1.4Z"/>
      <path class="cls-3" d="M35.08,67.48c.02-.23.06-.7.14-.89.14-.4.11-.22.08-.94l-.63.32-.05,1.37c-.19.05-.68-.02-.87-.12-.31-.16-.17-.39-.1-.66-.52.02-.28.18-.6.42-.32.05-.69-.03-.94-.17v-.37c.01-.57-.38-.78-.8-.45-.17.13-.22.3-.44.28-.79-.09-.77-.08-.99,1.18-.06.34-.21.98-.19,1.3.57-.2.49-.53.64-1.15.89.02.16.99,1.24.37.29.13,1,.46,1.42.27.22.16.02.2.71.31l2.51.39c.24-.01.07.01.19-.05.04-.34.42-2.18-.21-2.29-.03,0-.89.24-.56.96l-.55-.08ZM31.49,67.07s-.17-.37-.17-.39c-.02-.4.57-.11.17.39ZM36,67.15c.19.07.19.22.17.44-.13-.08-.33-.19-.17-.44Z"/>
      <path class="cls-3" d="M25.27,9.13c.08.05.14.08.2.12.21.15.07-.02.19.2-.11.09-1.1.57-1.25.61-.25-.15-.56-.61-.92-.42-.37.2-.2.81-.42,1.12-.14.2-1.47.89-1.78,1.21-.02.44-.01.58.16.85.37.03.47-.1.76-.09-.23.19-1.14,1.46-1.56.02-.07-.25-.02-.21-.2-.3-.48,1.44,1.27,2.66,2.18.94.26-.49.37-.76-.06-1.11.3.03.25.16.56.01l.82-.55c.17-.06.38.04.62,0,.31-.48-.14-.25.91-.76.23-.11.95-.44,1.1-.57-.1-.56-.68-1.75-1.06-1.92l-.25.62ZM23.73,10.27c.23.03.33.14.39.38l-.53-.14.13-.24Z"/>
      <path class="cls-3" d="M16.67,13.81c.32.36.37.54.77.45.35-.08.11-.29,1.02-.21-.13.24-.85.86-1.14,1.03-.31-.19-.6-.46-1.11-.38-.28.46.17,2.02.87,2.08.45.03.52-.13.65-.42.05.65-.33.96-.72,1.18-.16-.49-.9-1.19-1.58-1.11l.1.72c.4.05.51-.01.85.12.04.31.05.59-.03.9-.11.41-.25.39-.35.67,1.2-.02,1.16-.57,1.07-1.21.43-.02.89-.1,1.11-.36.33-.39.12-.79,0-1.17.32-.45,1.19-.92,1.43-1.36-.12-.37-.79-1.18-1.63-1.18-.55,0-.43.05-.85.12.11-.3.38-.6.62-.77,0-.23-.02-.47-.14-.62-.31.24-.84,1-.96,1.51M16.49,15.28c.16-.09.44-.03.56.09-.08.09-.17.16-.3.17-.25.03-.23-.05-.26-.26Z"/>
      <path class="cls-3" d="M59.74,57.5l-.47-.45c-.15-.16-.44-.23-.66-.29l-.05.62,1.17.67c0,.38-.1.5-.38.63-.44-.03-.26-.22-.52-.27-.14.58.24.4.04.84-.06.14-.43.48-.57.58-.47-.17-.92-.97-1.36-1.2-.15.29-.14.51.04.69l1.48,1.48c.6.45,1.23-.44,1.48-.89.07-.13.02-.07.11-.14.16-.12.12.04.58-.47.32-.36.57-.7.9-1.07.04-.05.42-.49.45-.54.13-.23-.12-.46-.27-.63-1.67-1.98-1.84.24-1.99.44M60.16,57.84c0-.47.13-1.07.65-.81l-.65.81Z"/>
      <path class="cls-3" d="M12.88,51.86c.29.6.3.84.8,1.21-.02.56.63,1.45.99,2.02.35-.06,1.27-.76,1.63-1.01.46-.32.15.12.69-.42.15-.15.18-.13.26-.28-.96-.54-.89.23-1.71.61l-.58-.91.45.11c.35-.65.09-1.25-.32-1.46-.2-.1-.31,0-.52.07v.45c-.17-.19-.31-.52-.43-.75-.27-.52-.01-.31.14-.71l-.76-.19c-.14.38-.15.51-.4.75-1.03-.12-1-.75-1.29-.87-.23.42-.42,1.49,1.04,1.38"/>
      <path class="cls-3" d="M12.92,19.47c.21.07.24.03.4.15-.18.18-.25.18-.58.16.08.28.12.24.06.56-.26.12-.22.08-.52.1.12.65-.03.6-.33,1.03-.5.71-.43.36-.86.19-.06.64.34.4.16.95-.09.26-.3.58-.47.72-.32-.08-1.17-.68-1.54-.86-.11.81.32.71,1.68,1.56.42.26.71.46,1.01-.05.23-.4.47-.66.51-1.16.37-.2.34-.3.58-.65.2-.31.29-.4.46-.77.14-.3.1-.08.3-.32.16-.18.11-.3.19-.43.1-.15.47-.23.58-.75-.54-.29-.95-.89-1.69-1.04l.04.61Z"/>
      <path class="cls-3" d="M20.81,62.03c.03.39.5.67.9.96.19.14.22.11.41.21.24.12.07.12.3.32.16.14.29.12.41.2.21.14.25.41.65.58.3-.31.98-1.23,1.07-1.76l-.62.06s-.03.2-.03.21l-.13.2c-.13-.25-.1-.26-.12-.61-.56.18-.64.18-.64-.46-.52.17-.64-.04-.95-.3-.52-.42-.06-.51,0-.85-.55-.08-.61.57-1.42-.44.1-.39,1.02-1.06,1.15-1.45l-.61-.06c-.82,1.37-2.23,1.76-1.31,2.59.27.25.51.53.93.61"/>
      <path class="cls-3" d="M7.27,30.76c0-.17,0-.2.07-.36.07-.13.05-.07.1-.14.07-.11.05,0,.08-.14-1.03-.22-.92.59-.59,1.2l.46.04c-.16,1.19-.5,1-.88.88.1.56.17.27.42.65.03.39-.1.61-.17.96-.13.63-.02.33-.53.58.04.25.29.44.43.6l.73-.36c.21.19.32.36.44.63.19.43.05.52.08.9.23-.05.66-.53.68-.85.03-.47-.36-.7-.63-.92.03-.37.13-.63.2-.98.08-.4-.09-.33.1-.63.07-.11.02.04.11-.21.12-.34.5-1.53.53-1.82-.21-.18-.82-.68-1.06-.72-.26.39.02.55-.56.7"/>
      <path class="cls-3" d="M44.24,69.45c.69-.45.06-.78.87-.98.73-.17.12-.24.69-.19.5.04,1.26-.31,1.89-.5-.06-.57-.46-1.76-.79-2.07-.14.12-.27.37-.35.55.15.17.23.19.33.37-.23.19-.95.38-1.24.32-.12-.22-.08-.35-.16-.49-.58.23.14.78-1.06.8-.09-.26-.12-.34-.31-.46l-.42.57.24.25c.1.1.14.15.22.3-.11.25-.42.6-.82.56-.53-.06-.38-.51-.5-.86-.41.03-.33.76-.26,1.06.2.94,1,1.2,1.66.77"/>
      <path class="cls-3" d="M68.24,30.89c.53-.13,1.79-.64,1.95-.98l-.53-.3c-.22.18-.1.23-.39.37l-.34-.98c.49-.66.45-.68.59-1.63.16.09.06.01.18.16.05.07.1.16.14.23.1.17.18.33.25.47l.55.03c-.09-.48-.76-1.19-1.04-1.41-.97.26-.55.68-.62,1.14-.02.18-.11.39-.19.52l-.55-1.31c.19-.2.48-.3.74-.42l.8-.44c-.46-.45-.72-.19-1.5.23-1.77.94-1.43.42-.63,2.63.21.59.36,1.15.58,1.7"/>
      <path class="cls-3" d="M29.86,6.92c.06.04.05.06.24.02-.27.21-.22.51-.14.9-.28.08-.58.19-.87.19-.14-.27-.26-.71-.42-.88-.19.18-.15.18-.23.45-.09.31-.06.14-.29.46-.25.35-.17.74-.04,1.14l.76.15.16-.42.16.18c.21.26.29.24.64.13.58-.17.47-.16.82-.48.3.08,1.12.22,1.27-.21.07-.2-.18-1.13-.29-1.33-.14-.25-.6-.51-.9-.7-.51-.32-.85-.42-.86.39M30.39,7.64c-.32-.12-.21-.38.1-.39.06.23.05.21-.1.39ZM30.89,7.24c.27.04.38.14.41.42h-.45s.05-.42.05-.42ZM28.41,8.4c.05-.1-.05-.13.29-.27l.07.32c-.22.05-.18.06-.36-.05Z"/>
      <path class="cls-3" d="M65.4,47.52l.47-.11-.24.85c-.12,0-1.72-.35-.93.72.16.22.26.28.57.18-.03.23-.13.49-.24.64-.44.02-1.23-.5-1.72-.61.09.76.08.57,1.13.98.32.12,1.31.62,1.63.38.17-.13,1.11-2.71,1.18-3.14-.71-.24-1.28-.5-2.14-.52.06.25.13.46.29.64"/>
      <path class="cls-3" d="M56.96,13.97c.22.5-.24.2.52.87.19.17.62.54.84.64.32-.5,1.06-1.21,1.17-1.91l-.64.05-.09.53c-.28-.12-1.7-1.4-1.95-1.46-.28-.07-.61.25-.72.39,0,.39.22.43.36.73-.12-.01-1.78-.51-.59-1.52.18-.15.13-.03.18-.27-1.25-.01-2.04,2.01-.14,2.44,1.04.23.98-.3,1.06-.49"/>
      <path class="cls-3" d="M69.61,35.45c.18.18.24.13.37.34-.34.11-.5.15-.42.62.05.31.07.72.18.99.18.46-.13.25.13.86.07.17,0,.66.05.99.61.04,1.5-.21,1.97-.38-.11-.23-.28-.33-.45-.45-.19.1-.14.12-.37.19.03-.33.14-.35.3-.55l-.36-.23c-.01-.34.12-.4.25-.57-.48-.38-.36-.36-.46-1.28.21-.2.65-.26.96-.38-.42-.48-.26-.05-.77-.59-.31-.33-.55-.37-1.15-.29l-.22.74ZM70.45,35.51c.03-.34.04-.26.13-.36.13.13.13.11.22.29l-.35.07Z"/>
      <path class="cls-3" d="M28.32,64.14c.81.07.82.44,1.38-.1-.24-.33-1.39-.34-1.73-.31-.14.4-.34.7.01.99.13.1.55.35.54.83-.49-.21-1-.49-1.46-.67l-.03-.51c-.2-.03-.5.2-.71.27.04.37.16.42.12.87-.79.39-.78.26-1.55.04.05.38.38.88.65.94.49.11.78-.28,1.03-.41.34.17,1.55.81,1.91.78.22-.27.46-.98.43-1.41-.04-.68-.4-.88-.6-1.32"/>
      <path class="cls-3" d="M69.19,34.5c.76-.13,1.55-.37,2.07-.7-.1-.2-.33-.32-.55-.43-.19.2-.09.22-.41.32l-.3-1.34c.33-.12.9-.54.87-.96-.18-.08-.39-.14-.67-.14-.1.26.2.34-.37.61-.23-.24-.26-.65-.3-1.03-1.46.27-1.16.66-.9,1.44.23.68.42,1.51.54,2.23"/>
      <path class="cls-3" d="M37.33,43.46v.2c2.06.06,4.43-.01,6.56,0,.41,0,.76.07.31-.21-.55.04-2.57-.51-2.94-.79v-1.32c-.26.04-.36.11-.57.2-.54.21-.43.01-.45,1.11-.38.29-2.3.86-2.9.81"/>
      <path class="cls-3" d="M39.94,68.05c-.49.92.29.63.56.93-.36.19-1.01.24-1.29,0-.34-.3-.03-.75-.01-1.16-.63.09-.89,1.81.1,2.13.48.16,1.02-.03,1.36-.25.82-.53.37-.87.3-1.01l.57-.03c.07-.56.03-1.51-.33-1.81-.41-.34-.98.54-.62.93-.39.06-.47-.05-.65.27M40.93,67.32c.19.06.21.13.24.4-.19-.07-.39-.16-.24-.4Z"/>
      <path class="cls-3" d="M35.28,6.76c-.89.1-.97.27-1.1-.42-.03-.18-.06-.38-.16-.5-.41.31-.04.27-.52.69-.45.4-.39.68-.39,1.24.19.11.47.24.72.27l.25-.36.12.18c.25.49.6.29,1.73.16.02-.45-.18-1.59-.22-2.45,0-.13-.14-.56-.21-.68-.14.07-.25.19-.36.32-.32.38.24.98.14,1.55M33.88,6.84l.04.34c-.37-.07-.3-.11-.34-.14.09-.17.08-.13.29-.21Z"/>
      <polygon class="cls-3" points="41.25 40.7 41.25 36.29 40.26 36.45 40.26 41.2 41.25 40.7"/>
      <path class="cls-3" d="M42.86,7.6c.57.57.63.56.89.24.24.29-.15.49.7.67.39.09.8.21,1.19.24.14-1.1.36-.83.27-2.2-.22,0-.45.17-.6.31l.15.49c-.32-.03-.98-.16-1.19-.26-.08-.34,0-.7,0-1.04-.14.05-.18.06-.28.14-.18.14-.08.11-.17.2-.16.17-.95.26-.98,1.21M43.85,6.91l-.1.38-.3-.27.39-.11Z"/>
      <path class="cls-3" d="M64.04,21.34c-.94.16-1.21-.56-1.45-.57-.11,1.24.28,1.34,1.34,1.18l.88,1.42c.42-.22,1.53-1.04,1.67-1.45l-.59-.15-.23.45c-.13-.08-.07-.02-.17-.16l-.38-.61c-.4-.64-.26-.22-.11-.92h-.71c-.13.27-.05.48-.25.81"/>
      <path class="cls-3" d="M67.56,26.6c.03-.55-.27-.74-.28-1.1.67-.07.64.39.78.69.7-.07,1.17-.9-.61-1.16-1.35-.2-.78.55-.71,1.09-.22-.18-.6-.53-.64-.97-.08-.84.56-.62.71-.97-.28-.19-2.05.2-1.44,1.58.36.81,1.22,1.35,2.2.85"/>
      <path class="cls-3" d="M40.17,7.54c-.22.22-.8.26-1.12.09-.43-.22-.33-.46-.33-.77l-.07-.32c-.31.18-.37.99-.31,1.36.13.8,1.36,1.01,2.23.25.19-.16.62-.72.42-1.1-.21-.29-.61-.17-.98-.27,0-.21.12-.32.31-.42.4-.21.33.02.66,0,.04-.42.07-.4-.06-.78-.55-.13-1.05.48-1.3.88-.69,1.06.18.89.56,1.08"/>
      <path class="cls-3" d="M64,50.97l.54-.05c-.08.27-.37.85-.51,1.02-.31.02-.65-.24-.96-.33.02.35.03.27.16.51.22.4-.11.66.4,1.08.15.12.23.22.43.29l.62-.39c-.02-.29-.09-.26-.12-.49.62.18.67-.02.88-.5.14-.33.33-.67.45-1-.25-.25-1.54-.76-2.05-.78l.17.64ZM63.71,52.75l-.02-.4c.24.03.22.01.32.17l-.29.23Z"/>
      <path class="cls-3" d="M7.35,37.65c.35.94-.23,1.15-1.08,1.29.09.21-.09.09.22.2,1.91.67,2.49-2.09.3-2.29-.92-.08-2.09.25-1.15,1.04.44.37,1.43.94,1.63.07l.09-.32ZM5.79,37.67c.01-.31.14-.32.44-.32-.05.28-.13.37-.44.32Z"/>
      <path class="cls-3" d="M61.66,64.65c.41-.7-.12-1.48-.83-1.22-.3.11-1.25.93-1.35,1.17l1.8,2.02.42-.34c-.1-.28-.58-.62-.71-.92.44-.32.51-.22,1.13-.06.24.06.67.25.93-.33-.38-.21-.92-.27-1.38-.32M60.23,64.54c.21-.26.54-.66.99-.51.2.53-.29.76-.57.98-.17-.13-.33-.27-.42-.47Z"/>
      <path class="cls-3" d="M11.82,48.87c-.4-.08-.65-.41-.43-.92.13-.32.37-.43.54-.57.26-.21.08.03.19-.24-2.43.05-1.71,3.1.54,2.13.48-.21,1.74-1.07.61-1.37-.3-.08-1.12-.14-1.39-.01-.43.21-.32.69-.06.98M12.82,48.62c-.09-.25.05-.56.28-.44.22.11-.05.4-.28.44Z"/>
      <path class="cls-3" d="M60.65,54.61c.26.14.31.18.48.38-.29.19-.81.11-1.13.34.03.17.22.38.34.48.14,0,.21,0,.35-.04.19-.07.52-.51.75-.25.2.31-.02.65-.06.9.32.13.71.52,1.06.56.17-.11.78-.92.81-1.19-.03-.13-.79-.78-1.56-.8l-.4-.65c-.08-.15-.41-.33-.62-.38l-.03.66Z"/>
      <path class="cls-4" d="M39.59,41.63c-.23.11-1.67.69-1.72.76,1.7-.44,3.07-.92,4.44-1.73,2.63-1.57.65-2.66-.96-2.76v.7c.62.07,1.93.18,1.33,1.06-.53.78-2.18,1.56-3.08,1.97"/>
      <path class="cls-3" d="M45.86,71.26c-.63.06-.69.06-.96.51-.18.3-.43.63-.56.92l-.12-.28c-.2-.88.08-.88-.71-.72l.47,2.71.56-.1c-.04-.67-.25-.84.23-1.29.24.18.66.77.93,1.08l.67-.12c-.11-.37-1.04-1.06-1.27-1.48l.78-1.22Z"/>
      <path class="cls-3" d="M5.97,45.91c-.36.05-.49-.09-.54-.42-.05-.41.1-.48.37-.66l-.1-.52c-1.12.22-.92,1.78-.28,2.12.44.24.94.03,1.12-.3.17-.32.14-1.01.28-1.38.31,0,.38.09.42.41.05.35-.07.37-.27.53l.09.55c.95-.18.8-1.54.24-1.94-.42-.3-.91,0-1.06.31-.19.4-.09.97-.29,1.31"/>
      <path class="cls-3" d="M64.91,63.3c.53.25.75.09,1.08-.27.24-.27.48-.7.21-1.08-.12-.17-1.48-1.36-1.66-1.47-.33.24-.3.48-.3.47,0,0,0,.03,0,.04-.86.34-.84,1.06-.21,1.6.58.5,1.43.35,1.45-.57.26.12.55.43.19.73-.17.14-.63.1-.74.55M64.27,61.37c.49-.29,1.21.6.7.89-.49.28-1.22-.59-.7-.89Z"/>
      <path class="cls-3" d="M38.12,59.94c-.07,1.5-1.03,1.24-1.21,1.04-.31-.35.12-.38-.56-.34.19,1.07,1.45,1.04,1.93.32.42-.65.39-2.11-.11-2.58-.66-.63-1.82-.29-1.87.74-.03.55.23.89.56,1.06.6.3.89-.05,1.27-.23M37.27,58.43c.88-.27,1.08,1.27.31,1.46-.45.11-.79-.15-.86-.54-.08-.52.15-.8.54-.92Z"/>
      <path class="cls-3" d="M40.81,59.92c.09,1.26-.9,1.4-1.2,1.07-.32-.36.13-.38-.56-.35.18,1.08,1.45,1.04,1.93.31.44-.67.37-2.15-.14-2.6-.71-.62-1.83-.21-1.84.83,0,.53.26.86.61,1.02.58.26.9-.08,1.21-.27M39.98,58.43c.88-.27,1.06,1.28.32,1.46-.95.23-1.26-1.17-.32-1.46Z"/>
      <path class="cls-3" d="M41.23,35.08l.03-3.41-1.03.24.04,3.29c.46.04.53-.14.96-.12"/>
      <path class="cls-3" d="M9.92,24.91c.24-.02.44-.08.73-.03.09.34.11.85-.14,1.06-.47.39-1.08-.53-.98,0,.03.13.23.33.31.41.69.63,1.54.67,1.89-.23.45-1.16-.91-1.93-1.98-1.97l.16.76Z"/>
      <path class="cls-3" d="M20.16,59.21l-.68-.05c-.1.28-.02.39-.19.69-.4.05-.86-.15-.95-.46-.16-.53.39-.53.47-.89-.62-.33-2.21,1.29-.94,2.11,1.16.75,2.48-1.01,2.29-1.4"/>
      <path class="cls-3" d="M51.57,72.21s.03,0,.03.01l.1.03c.2.04.28-.02.47-.15l-.93-2.54-.52.21.28.83c-2.13-.35-.69,3.27.56,1.6M50.68,71.01c.5-.31.95.77.54,1.05-.51.34-1.06-.72-.54-1.05Z"/>
      <path class="cls-3" d="M71.64,44.83c-.66.4-.24,1.29.44,1.46.92.23,1.5-.33,1.21-1.18.3,0,.55.12.87.08l.1-.51c-.5-.07-2.41-.5-2.7-.44-.01.09-.05.25-.04.33.01.12,0,.05.04.14l.09.11ZM72.94,45.5c-.24.53-1.4.21-1.1-.39.22-.46,1.34-.12,1.1.39Z"/>
      <path class="cls-3" d="M18.07,63.92c-.1-.22-.27-.34-.44-.43-.13.16-1.01,2.44-1.04,2.71.14.15.31.29.48.35.29-.14,2.31-1.3,2.43-1.48l-.4-.34c-.49.15-1.34.9-1.75,1l.71-1.82Z"/>
      <path class="cls-3" d="M7.23,53.24l2.52-.97-.13-.47c-.56.04-.26.07-.87.26.2-1.97-2.56-.94-1.91.28.11.21.03.08.18.19.21.16.13.06.13.15,0,.11-.17-.04.08.55M7.77,51.58c.75-.27.87.62.14.83-.34.1-.65.02-.66-.32-.01-.37.26-.42.52-.51Z"/>
      <path class="cls-3" d="M41.69,59.03l.35.04c.21-.35.23-.8.94-.64.58.13.57.69.21,1.1-.25.29-.59.55-.92.81-.29.23-.64.52-.69,1.08h2.29s0-.39,0-.39l-1.67-.02c.19-.53,1.81-1.15,1.66-2.17-.16-1.1-2.23-1.01-2.17.2"/>
      <path class="cls-3" d="M10.66,56.95c-.32-.08-.43-.41-.69-.59-.71-.48-1.37.48-.59,1.09.34.27.15,0,.2.31.03.18.08.29.23.41.3-.24.31-.31.7-.52.55-.29,1.12-.62.5-1.41-.19-.24-.35-.43-.82-.38-.07.51.29.51.31.52.26.13.33.29.16.56M9.99,56.89c.12.12.18.16.25.32l-.45.11c-.16-.17-.28-.2-.2-.53.26-.07.22-.08.41.1Z"/>
      <path class="cls-3" d="M4.87,47.14l-.3.1c-.1.77.44.92,1.1.97.65.05,1.32.15,1.98.19l-.13-.54-1.34-.11c.09-.15.9-.62,1.09-.73l-.08-.59c-1.28.58-1.77,1.75-2.23.84l-.08-.14Z"/>
      <path class="cls-3" d="M31.88,72.42c.07.04.24.13.32.14.26.04.76-.42.76.22-.31.1-.75-.02-1.05.12-.26.12-.4.49-.24.82.13.26.48.33.86.29.46-.06.07-.08.36.09.14.08.25.1.43.1-.04-.62.39-1.61.05-1.93-.37-.36-1.35-.41-1.5.16M32.19,73.3c.19-.13.4-.13.69-.1-.04.25-.08.32-.21.49l-.46-.07-.02-.31Z"/>
      <path class="cls-3" d="M55.81,68.63s.04,0,.05,0c.01,0,.04,0,.05,0,.61,0,.27-.84.91-.53-.04.5-.96.69-.59,1.39.3.56,1.08.23,1.24-.33.41.08.23,0,.6-.13-.08-.22,0-.03-.13-.2l-.39-.54c-.12-.19-.32-.61-.53-.71-.45-.23-1.42.34-1.23,1.04M56.71,69.2c-.13-.3.24-.54.37-.65.35.37.06.88-.37.65Z"/>
      <path class="cls-3" d="M24.47,63.41c-.19.19-.55.77-.54,1.12.23.21.85.67,1.3.63.26-.38,1.06-1.54.68-2.25-.3-.05-.54.19-.69.33.15.3.28-.17.17.67-.45.05-.68-.35-.92-.49"/>
      <path class="cls-3" d="M69.23,53.18c-.44.16-.91.71-.63,1.38.18.42.77.83,1.35.6,1.27-.5.55-2.45-.72-1.98M69.03,54.25c-.2-.75.99-.71,1.1-.11.06.3-.18.54-.48.53-.24,0-.57-.23-.62-.43Z"/>
      <path class="cls-3" d="M15.11,62.5c.29-1.27-1.63-1.82-2.04-.5-.2.63.29,1.2.75,1.31.63.15,1.19-.34,1.29-.81M13.96,61.83c.64-.32.96.6.28.92-.64.3-1.07-.52-.28-.92Z"/>
      <path class="cls-3" d="M22.09,69.33c-.5.12-.81.13-.64-.5.36.09.77.47,1.11.61.91-.93-.42-2.28-1.3-1.34-1.01,1.07.22,2.26,1.11,1.61-.07-.17-.17-.23-.28-.38M21.69,68.4c.23-.26.82-.16.62.44-.22-.07-.53-.21-.62-.44Z"/>
      <path class="cls-3" d="M66.4,58.12c-1.32.45-.62,2.44.69,2.01,1.21-.4.66-2.47-.69-2.01M66.22,59.24c-.34-.7.78-.88,1.04-.2.25.64-.74.81-1.04.2Z"/>
      <path class="cls-3" d="M71.26,48.2c.06-.08.13-.17.16-.28.09-.37.02-.07-.05-.31-.09-.31-.02-.5.32-.49.1.58-.12,1.24.47,1.37.63.14.88-.54.67-1.09.07-.06.26-.05.27-.6-.58.03-1.56-.39-1.85-.17-.34.25-.62,1.33.03,1.56"/>
      <path class="cls-3" d="M63.08,63.89c.03-.27.62-.75.84-.94-.5-1.13-2.45-.15-1.57.99.92,1.19,2.2.14,1.76-.82-.57.21-.4.46-.41.54-.04.31-.32.36-.62.23M62.73,63.57c-.13-.36-.15-.37.08-.65l.44.07c-.04.22-.33.49-.52.58Z"/>
      <path class="cls-3" d="M13.88,18.06c.13-.06.11-.37.71-.03-.14.37-.38.6-.69.75.1.24.7.82.95.79.25-.11.49-.47.65-.66.33-.39.23-.52-.06-.8-.25-.25-1.1-1.07-1.78-.79-.05.33.1.54.22.74"/>
      <path class="cls-3" d="M28.66,73.05s.01-.03.02-.05c.1-.32.05-.34.24-.87.1-.28.3-.64.12-.94-.09-.15-.99-.8-1.54-.12.42.51,1.14-.22,1.02.54-.51.04-1.24-.26-1.4.34-.16.62.4.89.98.81l.26.21c.09.04.2.06.3.08M28.38,71.97c0,.26-.16.53-.5.44-.28-.07-.29-.49.11-.47l.39.03Z"/>
      <path class="cls-3" d="M19.53,67.85c-.05-.14-.11-.21-.23-.3-.28-.21-.91.15-.64-.65.26-.02.79.57,1.08.71.99-.96-.3-2.29-1.2-1.45-1.01.94-.05,2.22,1.01,1.69M18.93,66.57c.24-.28.44-.19.67.01l-.07.41c-.19-.05-.48-.28-.59-.42Z"/>
      <path class="cls-3" d="M12.16,60.73c-.13-.66-.26-.39-.65-.6-.04-.23,0-.4.08-.58.36.12.53.79.86.99,1.2-.74.35-2.25-.78-1.72-1,.47-.9,2.02.49,1.91M12.44,59.26c.18.27.25.38-.05.63-.1-.08-.26-.31-.34-.45-.15-.25.13-.24.39-.19Z"/>
      <path class="cls-3" d="M58.93,68.43c-.14-.32-1.07-1.22-.62-1.56.39-.29.89.66,1.2,1.12l.42-.31c-.05-.21-.65-1.02-.83-1.22-.44-.5-1.06-.1-1.19.46-.42-.13-.12-.07-.55.12.06.29.94,1.49,1.14,1.68.13-.06.32-.21.43-.29"/>
      <path class="cls-3" d="M34.27,74.35c.28-.54-.01-1.8.88-1.46.12.48-.1,1.03-.12,1.55l.54.08c.05-.4.24-1.3.17-1.66-.1-.49-.79-.56-1.16-.29-.08-.12-.01-.07-.12-.21-.3-.03-.4-.13-.46.13l-.21,1.82.48.04Z"/>
      <path class="cls-3" d="M47.84,73.41c.05.02.13.11.28.11.05,0,.25-.06.33-.08l-.46-1.96-.54.14c.09.55.67,1.78-.26,1.66-.23-.35-.31-.95-.45-1.47l-.52.14c.01.2.3,1.33.38,1.5.27.56,1.02.37,1.22-.04"/>
      <path class="cls-3" d="M67.12,57.02l-.2.04c-.12.08-.16.22-.21.33.09.12,1.45.98,1.65,1.04l.3-.42c-.25-.29-1.78-.82-1.04-1.31.35-.16,1.01.55,1.42.63l.25-.42c-.16-.17-.94-.63-1.18-.74-.63-.29-1.04.21-.99.86"/>
      <path class="cls-3" d="M5.86,49.24l.12.52c.5-.02,1.73-.85,1.66.18-.43.3-.96.3-1.41.54l.14.51c.24-.04,1.3-.38,1.47-.48.57-.33.27-1.03-.15-1.25.19-.19.17-.26,0-.56l-1.85.54Z"/>
      <path class="cls-3" d="M53.38,69.97c.18-.57.5-.14.83-.35.12-.07.17-.14.23-.22-.39-.55-1.46-.03-1.54.51-.05.37.23.63.54.64.33.01.7-.23.97-.1.02.35-.24.45-.55.37-.29-.07-.4-.01-.58.24.53.54,1.46.13,1.64-.42.12-.38-.06-.71-.43-.77-.47-.07-.74.22-1.11.09"/>
      <path class="cls-3" d="M36.66,73.1c.07-.21.44-.09.57,0,.21.15.24.19.57.06-.06-.74-1.34-.76-1.61-.24-.18.35.02.65.3.8.53.28.72.07.8.43-.2.18-.45.18-.65-.02,0,0-.08-.09-.09-.1l-.53-.03c0,.7,1.25.94,1.67.44.3-.36.19-.73-.16-.9-.47-.23-.74-.14-.88-.43"/>
      <path class="cls-3" d="M25.38,71.78c.2-.37.41-1.5.98-1.31.51.16-.2,1.22-.29,1.59.13.11.3.17.49.22.12-.23.53-1.12.59-1.38.13-.58-.45-.91-1-.76l-.03-.09c-.06-.12.09.1-.04-.08-.1-.15-.22-.16-.43-.2l-.73,1.81.48.19Z"/>
      <path class="cls-3" d="M40.98,73.47c0-.44.26-.51.63-.37.13.36.11,1.01.15,1.49l.52-.02c.03-.23-.05-1.46-.12-1.64-.19-.51-.92-.41-1.18-.08-.33-.13.1-.09-.25-.16-.15-.03-.22.01-.35.05l.14,1.95.48-.03c.07-.27-.02-.8-.02-1.18"/>
      <path class="cls-3" d="M9.31,56.05c-.1-.88-.22-.26-.65-.71-.21-.44.79-1.06,1.05-.56.12.22-.02.37-.08.51.13.17.14.29.38.37.64-.86-.18-2.02-1.27-1.43-.99.53-.72,1.93.57,1.82"/>
      <path class="cls-3" d="M69.19,52.73l.28.1c.11-.05.04-.03.11-.08.01-.01.06-.05.07-.06l1.42.47.23-.45-1.39-.62.1-.35-.35-.17c-.23.32-.07.23-.25.33-.34-.17-.18-.24-.11-.56l-.31-.17c-.57.83-.22.97.1,1.19.31.22.09,0,.11.37"/>
      <path class="cls-3" d="M14.73,64.43c.26-.13.84-.78,1.11-1.01.23.1.07.09.32.21l.24-.27c-.14-.26-.15-.07-.19-.37.4-.22.27,0,.55.11l.25-.16c-.05-.19-.31-.48-.46-.55-.37-.16-.58.05-.7.23-.27-.04-.09-.03-.33-.13l-.21.22c.02.29.06-.02.1.35-.23.16-.8.72-1.03.98.07.2.22.3.35.39"/>
      <path class="cls-3" d="M56.22,69.66c-.25.1-.06.12-.35.1l-.46-.85c.12-.27.11-.03.21-.31l-.16-.29-.36.12c-.07-.19-.15-.39-.28-.53-.45.4-.22.7-.22.75,0,.24-.27.06-.03.43.13.21.12.09.36.07.18.42.44.89.69,1.16.43.07.58-.06.81-.31l-.2-.35Z"/>
      <path class="cls-3" d="M11.44,57.32c-.1.13-.13.1-.17.21-.06.2.29.08-.69.7-.52.33-.56.66-.03,1.11l.35-.21c-.1-.26-.1-.06-.17-.33l.85-.59c.14.09.12.12.25.25.16-.06.17-.09.31-.16-.01-.24-.05-.15-.12-.37l.54-.34c-.34-.46-.76-.18-.79-.18-.31.02.12-.06-.32-.09"/>
      <path class="cls-3" d="M21.54,66.63h-.58s-.14.15-.15.16c-.18.13-.42-.13-.45.28-.03.38.35-.08-.2.67-.37.51-.68,1.16.26,1.31l.17-.27c-.04-.16-.13-.15-.22-.31l.54-.85c.21.06.12.08.37.13l.19-.32c-.1-.1-.16-.13-.24-.25l.32-.56Z"/>
      <path class="cls-3" d="M11.91,50.06c.67.52,1.88-.26,2.81-.69l.39-.23c-.64-.58-.87-.25-1.58.09-.34.17-1.44.61-1.63.83"/>
      <path class="cls-3" d="M26.82,9.14c.5.36,1.04.23.36,1.23-.21.31-.52.33-.6.54,2.02.86,1.62-2.03.41-2.5l-.17.72Z"/>
      <path class="cls-3" d="M14.81,55.7c.78.27,1.23-.18,1.67-.51.39-.29,1.03-.69,1.34-1.01-.66-.49-.94-.06-1.6.44-.43.33-1.08.75-1.41,1.08"/>
      <path class="cls-3" d="M61.22,54l2.56,1.43c0-.71-.54-1.01-1.03-1.3-.4-.24-1.16-.72-1.55-.87l.03.75Z"/>
      <path class="cls-3" d="M54.67,60.55c-.18.36-.25.68-.03.93.26.29,1.65,1.94,1.77,1.97.12-.86-.3-1.21-.67-1.65-.22-.27-.87-1.14-1.07-1.25"/>
      <path class="cls-3" d="M33.97,59.25c.34-.05.58-.28.83-.41v2.58s.43-.04.43-.04v-3.3c-.41-.02-.24.07-.71.48-.36.32-.55.13-.55.69"/>
      <path class="cls-3" d="M41.75,6.92c.12.3.35.38.41.81-.29.33-.69.62-1.38.58.08.25.87,1.19,1.52.16.34-.53.36-1.62-.07-2.11l-.47.56Z"/>
      <path class="cls-3" d="M4.87,36.19l2.84.32c-.14-.57-.64-.68-1.29-.76-.61-.07-1.21-.19-1.86-.25l.31.68Z"/>
      <path class="cls-3" d="M36.81,69.21c.52-.29.6-.74.61-1.41.01-.64.06-1.27.05-1.94l-.61.39-.05,2.97Z"/>
      <path class="cls-1" d="M37.27,58.43c-.39.12-.63.4-.54.92.06.38.41.65.86.54.77-.19.57-1.73-.31-1.46"/>
      <path class="cls-1" d="M39.98,58.43c-.95.29-.63,1.69.32,1.46.75-.18.56-1.73-.32-1.46"/>
      <path class="cls-3" d="M69.37,50.11c.26.17,2.22.83,2.59.88l.14-.5c-.21-.14-2.3-.85-2.56-.86l-.16.48Z"/>
      <path class="cls-3" d="M70.65,48.89s-.03,0-.04.03c-.02.09-.05-.03-.15.17-.04.08-.06.25-.06.35.43.13,1.56.54,1.88.55l.13-.52c-1.61-.53-1.4-.35-1.27-1-.18-.17-.16-.18-.4-.26-.12.21-.25.38-.09.69"/>
      <path class="cls-3" d="M30.61,72.09c.13-.21.2-.21.22-.48-.21-.09-.35-.22-.63-.05-.17-.16-.17-.24-.56-.24l-.51,1.91.52.11c.11-.33.17-.64.29-1,.22-.65.52-.31.67-.25"/>
      <path class="cls-3" d="M49.5,73.11c-.05-.33-.17-.63-.27-.93-.19-.65-.01-.53.39-.68v-.49c-.36-.02-.53.05-.64.36-.17-.12.05-.19-.59,0l.62,1.9.49-.15Z"/>
      <path class="cls-3" d="M24.54,69.22c-.34-.38-.38-.16-.61-.23-.21-.07.19-.14-.47-.35l-.9,1.77.48.22c.71-1.78,1.02-1.1,1.26-1.02.13-.2.19-.13.24-.39"/>
      <path class="cls-3" d="M57.37,61.52c.28-.02.43-.13.62-.23l-.36.95c.31-.02.52-.42.66-.62.27-.38.13-.67-.16-.88-.35,0-.28.14-.61.16.03-.43.16-.24.29-.55-.09-.2-.12-.25-.38-.3-.27.4-.36,1.03-.07,1.48"/>
      <path class="cls-3" d="M24.35,71.31c.15-.14.84-1.57.88-1.79l-.44-.19c-.16.19-.82,1.54-.86,1.78l.43.19Z"/>
      <path class="cls-3" d="M64.83,60.1c.18.19,1.35,1.13,1.56,1.18l.3-.42c-.33-.21-1.3-1.09-1.6-1.13-.15.16-.18.19-.26.38"/>
      <polygon class="cls-3" points="39.38 74.71 39.92 74.71 39.89 72.69 39.35 72.69 39.38 74.71"/>
      <path class="cls-3" d="M31.12,73.71c.1-.49.45-1.47.45-1.93l-.52-.06-.42,1.9.5.09Z"/>
      <polygon class="cls-3" points="7.47 53.76 7.69 54.23 9.48 53.45 9.31 52.95 7.47 53.76"/>
      <polygon class="cls-3" points="52.65 71.81 53.17 71.68 52.39 69.87 51.91 70.09 52.65 71.81"/>
      <path class="cls-5" d="M66.22,59.24c.3.61,1.29.44,1.04-.2-.26-.68-1.38-.51-1.04.2"/>
      <path class="cls-5" d="M69.03,54.25c.05.19.38.42.62.43.3,0,.54-.23.48-.53-.11-.6-1.3-.64-1.1.11"/>
      <path class="cls-5" d="M13.96,61.83c-.79.39-.36,1.21.28.92.68-.32.36-1.24-.28-.92"/>
      <path class="cls-5" d="M7.77,51.58c-.26.1-.53.14-.52.51.01.34.32.42.66.32.73-.21.61-1.11-.14-.83"/>
      <path class="cls-5" d="M50.68,71.01c-.52.33.03,1.39.54,1.05.41-.28-.04-1.36-.54-1.05"/>
      <path class="cls-5" d="M72.94,45.5c.24-.51-.88-.85-1.1-.39-.29.6.86.92,1.1.39"/>
      <path class="cls-5" d="M64.27,61.37c-.52.31.21,1.18.7.89.51-.3-.2-1.19-.7-.89"/>
      <path class="cls-5" d="M60.23,64.54c.09.2.25.34.42.47.29-.22.77-.45.57-.98-.45-.15-.78.26-.99.51"/>
      <path class="cls-3" d="M63.52,23.39l.86.02.03-.41-.3-.07c.03-.41.07-.4-.37-.41l-.07.29c-.1.27-.29.21-.16.58"/>
      <path class="cls-3" d="M10.48,21.11l.02.35-.3.1c.07.49.03.45.45.37v-.35s.31-.13.31-.13l-.1-.42-.37.07Z"/>
      <path class="cls-3" d="M62.82,17.03c.15.11.08.07.3.07l.04.35.44.02c-.01-.47.04-.44-.36-.45v-.36s-.41.01-.41.01l-.02.35Z"/>
      <polygon class="cls-3" points="26.18 11.25 25.83 11.17 25.7 11.6 26.07 11.72 26.2 11.41 26.55 11.49 26.65 11.06 26.32 10.95 26.18 11.25"/>
      <polygon class="cls-3" points="51.04 11.36 51.17 11.78 51.47 11.69 51.64 11.99 52 11.88 51.9 11.48 51.55 11.53 51.42 11.25 51.04 11.36"/>
      <path class="cls-3" d="M13.86,47.53c.14.15.06.08.27.16l-.11.4c.19.06.2.09.41.13l.12-.39-.28-.1.1-.39-.38-.12-.14.31Z"/>
      <path class="cls-3" d="M53.31,65.91l-.38-.07-.06.28-.4-.04-.07.37c.14.1.18.09.38.13l.12-.29.36.04.06-.41Z"/>
      <path class="cls-3" d="M47.75,10.05l.15.32.38-.1c.06.19.03.19.18.29l.32-.18c-.05-.24-.07-.2-.19-.37l-.3.13-.17-.31-.36.22Z"/>
      <path class="cls-3" d="M50.61,7.78l.12.39c.23-.04.16-.06.37-.08l.14.29.36-.15c-.01-.24-.03-.16-.12-.37l-.31.09-.19-.27-.37.12Z"/>
      <path class="cls-3" d="M39.78,70.76l.29-.25c.16.11.11.12.33.2l.21-.34-.3-.23-.25.25-.31-.18-.25.27.28.29Z"/>
      <polygon class="cls-3" points="46.06 69.03 45.73 68.87 45.55 69.11 45.2 68.99 45.05 69.36 45.39 69.53 45.56 69.29 45.88 69.45 46.06 69.03"/>
      <path class="cls-3" d="M32.98,69.27l.31-.24c-.06-.13-.12-.19-.19-.32l-.32.16-.18-.28-.37.27.2.3.31-.14.24.25Z"/>
      <path class="cls-3" d="M36.61,66.14c-.07-.18-.09-.16-.18-.32-.26.04-.12.07-.38.12l-.25-.18-.25.26.19.28.31-.15c.13.09.1.09.25.2l.3-.21Z"/>
      <polygon class="cls-3" points="47.66 68.34 47.31 68.2 47.15 68.48 46.83 68.37 46.65 68.74 46.99 68.9 47.14 68.65 47.51 68.73 47.66 68.34"/>
      <path class="cls-3" d="M4.38,37.25c.07.21.08.12.17.3-.11.14-.14.15-.23.25l.23.31.33-.23-.16-.26s.03-.05.03-.04c0,0,.08-.06.14-.27l-.2-.26-.31.21Z"/>
      <polygon class="cls-3" points="61.71 20.42 62.04 20.5 62.06 20.84 62.48 20.85 62.49 20.48 62.19 20.41 62.15 20.06 61.74 20.06 61.71 20.42"/>
      <path class="cls-3" d="M63.79,47.98l.07.38-.27.14.13.35c.46-.05.38-.13.28-.43l.3-.18-.19-.38-.33.12Z"/>
      <path class="cls-3" d="M22.28,60.37s0,.12.02.16c.06.17.02.07.07.14l.35-.04v-.37s-.35-.03-.35-.03l-.05-.33-.42.05c0,.47.02.33.38.44"/>
      <path class="cls-3" d="M54,9.01l.09.35.35-.03c.09.21.02.16.17.3l.3-.08-.07-.39-.34.02-.13-.3-.39.13Z"/>
      <polygon class="cls-3" points="62.22 51.44 62.25 51.78 61.95 51.91 62.08 52.32 62.44 52.2 62.39 51.86 62.67 51.73 62.58 51.34 62.22 51.44"/>
      <path class="cls-3" d="M8.59,32.83l.13.28-.23.25c.07.22.05.19.2.33l.29-.16c-.02-.2-.06-.13-.12-.37l.25-.15c-.06-.21-.1-.26-.23-.37l-.28.2Z"/>
      <polygon class="cls-3" points="67.12 30.21 67.38 30.39 67.28 30.76 67.62 30.88 67.81 30.53 67.55 30.4 67.61 29.99 67.26 29.87 67.12 30.21"/>
      <path class="cls-3" d="M8.41,28.85l.16.07c.07-.08.65-1.25.5-1.46-.22.08-.57,1.13-.66,1.38"/>
      <path class="cls-3" d="M17.67,57.56c0-.23-.46-.71-.65-.97-.17-.22-.1-.29-.34-.2,0,.17.29.47.4.63.38.52.33.59.59.55"/>
      <path class="cls-3" d="M24.73,8.67l-.53-.13c.13.42.25.34.67.44.07-.52.31-.46.04-.78-.15.16-.15.21-.18.47"/>
      <path class="cls-5" d="M32.19,73.3l.02.31.46.07c.13-.17.17-.24.21-.49-.29-.03-.5-.03-.69.1"/>
      <path class="cls-5" d="M72.06,47.23c-.09,1.63,1.11.09,0,0"/>
      <path class="cls-5" d="M28.38,71.97l-.39-.03c-.4-.02-.38.39-.11.47.34.09.49-.18.5-.44"/>
      <path class="cls-3" d="M5.81,33.05l-.19.19c-.11.09-.12.09-.18.23.52.05.26-.13.7-.27-.14-.35-.18-.52-.53-.61.04.24.11.28.2.45"/>
      <path class="cls-5" d="M56.71,69.2c.42.23.72-.27.37-.65-.13.11-.5.34-.37.65"/>
      <path class="cls-3" d="M25.33,69.29c.13-.14.19-.24.23-.45l-.48-.18c-.12.17-.17.21-.18.45l.43.18Z"/>
      <polygon class="cls-3" points="51.79 69.86 52.26 69.65 52.07 69.18 51.57 69.4 51.79 69.86"/>
      <polygon class="cls-3" points="39.37 72.46 39.88 72.46 39.87 71.94 39.35 71.96 39.37 72.46"/>
      <path class="cls-3" d="M64.23,59.61c.1.16.18.23.37.3l.32-.42c-.14-.09-.24-.18-.38-.25-.12.1-.23.22-.31.37"/>
      <path class="cls-3" d="M48.45,7.41c.25-.15.52-.16.55-.53l-.48.2c-.2-.4-.11-.31-.33-.42-.02.29-.06.23.08.45l.18.3Z"/>
      <path class="cls-3" d="M9.53,52.81l.13.45c.24,0,.38-.06.5-.19l-.22-.43-.41.17Z"/>
      <path class="cls-5" d="M9.78,57.32l.45-.11c-.07-.16-.12-.2-.25-.32-.19-.18-.16-.17-.41-.1-.08.33.04.36.2.53"/>
      <path class="cls-3" d="M52.02,8.87c.36-.17.5-.06.61-.46l-.49.15-.22-.47c-.2.23-.06.53.1.78"/>
      <path class="cls-3" d="M8.99,24.72c.03.22.07.35.19.5l.41-.13-.14-.49-.46.12Z"/>
      <path class="cls-5" d="M12.39,59.89c.3-.26.23-.37.05-.63-.26-.06-.54-.07-.39.19.08.13.24.37.34.45"/>
      <polygon class="cls-3" points="31.75 71.07 31.24 70.98 31.17 71.47 31.66 71.54 31.75 71.07"/>
      <path class="cls-3" d="M19.43,58.77h.49c.07-.55.03-.53-.48-.48l-.02.48Z"/>
      <polygon class="cls-3" points="65.79 51.7 65.94 52.14 66.42 51.99 66.28 51.52 65.79 51.7"/>
      <polygon class="cls-3" points="71.46 33.43 71.86 33.64 72.12 33.18 71.7 32.96 71.46 33.43"/>
      <path class="cls-3" d="M43.33,67.21c.19-.17.21-.25.27-.41l-.41-.24-.24.38c.11.15.21.19.38.27"/>
      <path class="cls-5" d="M21.69,68.4c.09.23.4.37.62.44.2-.6-.39-.7-.62-.44"/>
      <path class="cls-3" d="M40.68,66.4c.18-.1.23-.16.32-.34l-.32-.3c-.2.09-.23.17-.32.32.1.2.17.23.32.32"/>
      <path class="cls-5" d="M62.73,63.57c.19-.09.48-.35.52-.58l-.44-.07c-.23.28-.21.29-.08.65"/>
      <path class="cls-5" d="M18.93,66.57c.11.14.4.38.59.42l.07-.41c-.22-.2-.43-.3-.67-.01"/>
      <polygon class="cls-3" points="45.38 5.73 45.65 6.16 46.04 5.89 45.81 5.46 45.38 5.73"/>
      <path class="cls-5" d="M50.67,65.21c-.06-.19-.03-.11-.19-.23-.38,0-.57.28-.67.61l.86-.38Z"/>
      <polygon class="cls-3" points="54.73 65.01 54.29 64.91 54.21 65.43 54.67 65.52 54.73 65.01"/>
      <polygon class="cls-3" points="60.22 60.53 60.69 60.51 60.71 60 60.25 60.01 60.22 60.53"/>
      <path class="cls-3" d="M64.1,46.89c.09.24.09.26.25.4l.37-.19c-.05-.22-.09-.3-.25-.43l-.38.22Z"/>
      <path class="cls-5" d="M60.16,57.84l.65-.81c-.53-.25-.65.34-.65.81"/>
      <polygon class="cls-3" points="59.36 12.69 59.41 13.15 59.86 13.14 59.84 12.63 59.36 12.69"/>
      <path class="cls-3" d="M65.25,20.23l.4.02c.1-.18.09-.2.1-.44l-.47-.09-.03.51Z"/>
      <polygon class="cls-3" points="54.41 8.63 54.51 9.11 54.97 8.97 54.85 8.53 54.41 8.63"/>
      <polygon class="cls-3" points="63.29 16.95 63.75 16.98 63.74 16.54 63.33 16.55 63.29 16.95"/>
      <path class="cls-5" d="M30.85,7.66h.45c-.03-.29-.14-.38-.41-.42l-.05.42Z"/>
      <path class="cls-5" d="M16.49,15.28c.03.21.01.29.26.26.13-.02.22-.09.3-.17-.12-.12-.41-.17-.56-.09"/>
      <path class="cls-5" d="M12.82,48.62c.23-.04.49-.33.28-.44-.23-.11-.37.19-.28.44"/>
      <path class="cls-5" d="M31.49,67.07c.4-.49-.19-.78-.17-.39,0,.02.16.36.17.39"/>
      <path class="cls-5" d="M5.79,37.67c.31.05.39-.04.44-.32-.3,0-.43.01-.44.32"/>
      <path class="cls-5" d="M23.6,10.5l.53.14c-.06-.24-.17-.34-.39-.38l-.13.24Z"/>
      <path class="cls-1" d="M39.75,20.17c-.19.19.09.37.24.24.17-.16-.06-.41-.24-.24"/>
      <path class="cls-5" d="M30.39,7.64c.15-.18.16-.16.1-.39-.31,0-.42.27-.1.39"/>
      <path class="cls-5" d="M28.41,8.4c.18.1.14.09.36.05l-.07-.32c-.34.14-.24.17-.29.27"/>
      <path class="cls-5" d="M64,52.52c-.1-.16-.08-.15-.32-.17l.02.4.29-.23Z"/>
      <path class="cls-5" d="M33.58,7.05s-.04.07.34.14l-.04-.34c-.22.08-.21.04-.29.21"/>
      <path class="cls-5" d="M70.45,35.51l.35-.07c-.09-.18-.09-.16-.22-.29-.09.1-.09.02-.13.36"/>
      <path class="cls-5" d="M41.16,67.72c-.02-.28-.04-.34-.24-.4-.16.25.05.33.24.4"/>
      <polygon class="cls-5" points="43.45 7.02 43.75 7.3 43.85 6.91 43.45 7.02"/>
      <path class="cls-5" d="M36.17,67.59c.01-.22.01-.37-.17-.44-.16.25.05.36.17.44"/>
      <path class="cls-5" d="M65.07,48.85c.09,0,.16-.08.16-.17s-.07-.17-.16-.17-.16.08-.16.17.07.17.16.17"/>
      <path class="cls-5" d="M54,10.59c.09,0,.16-.08.16-.17s-.07-.17-.16-.17-.16.08-.16.17.07.17.16.17"/>
    </g>
  </g>
</svg>